<?xml version="1.0" encoding="UTF-8" standalone="no"?>
<!-- Created with Inkscape (http://www.inkscape.org/) -->

<svg
   width="140mm"
   height="27.747351mm"
   viewBox="0 0 140 27.747351"
   version="1.1"
   id="svg1"
   sodipodi:docname="atom3.svg"
   inkscape:version="1.3 (0e150ed6c4, 2023-07-21)"
   xmlns:inkscape="http://www.inkscape.org/namespaces/inkscape"
   xmlns:sodipodi="http://sodipodi.sourceforge.net/DTD/sodipodi-0.dtd"
   xmlns="http://www.w3.org/2000/svg"
   xmlns:svg="http://www.w3.org/2000/svg">
  <sodipodi:namedview
     id="namedview1"
     pagecolor="#ffffff"
     bordercolor="#000000"
     borderopacity="0.25"
     inkscape:showpageshadow="2"
     inkscape:pageopacity="0.0"
     inkscape:pagecheckerboard="0"
     inkscape:deskcolor="#d1d1d1"
     inkscape:document-units="mm"
     inkscape:zoom="0.7921153"
     inkscape:cx="279.63101"
     inkscape:cy="207.67179"
     inkscape:window-width="1280"
     inkscape:window-height="953"
     inkscape:window-x="-4"
     inkscape:window-y="349"
     inkscape:window-maximized="1"
     inkscape:current-layer="svg1" />
  <defs
     id="defs1">
    <clipPath
       clipPathUnits="userSpaceOnUse"
       id="clipPath268">
      <path
         d="m 598.89392,143.47876 c -8.58057,-4.08527 -23.55109,9.43661 -33.43756,30.20196 -9.88654,20.76535 -10.94525,40.91074 -2.36469,44.99601 8.58057,4.08523 23.55109,-9.43665 33.43763,-30.20197 9.88647,-20.76535 10.94519,-40.91073 2.36462,-44.996 z"
         transform="rotate(64.540566,397.0678,-300.14278)"
         clip-rule="evenodd"
         id="path268" />
    </clipPath>
    <clipPath
       clipPathUnits="userSpaceOnUse"
       id="clipPath274">
      <path
         d="m 596.89392,145.47876 c -8.58057,-4.08527 -23.55109,9.43661 -33.43756,30.20196 -9.88654,20.76535 -10.94525,40.91074 -2.36469,44.99601 8.58057,4.08523 23.55109,-9.43665 33.43763,-30.20197 9.88647,-20.76535 10.94519,-40.91073 2.36462,-44.996 z"
         transform="rotate(64.540566,397.65145,-297.5591)"
         clip-rule="evenodd"
         id="path274" />
    </clipPath>
    <clipPath
       clipPathUnits="userSpaceOnUse"
       id="clipPath266">
      <path
         d="m 622.80133,170.04407 c -2.62115,-9.13483 -22.66699,-11.3978 -44.77368,-5.05454 -22.10669,6.3433 -37.90283,18.89075 -35.28168,28.02558 2.62109,9.13482 22.66699,11.39782 44.77368,5.05453 22.10663,-6.34326 37.90283,-18.89075 35.28168,-28.02557 z"
         transform="rotate(16.010294,819.50994,-1813.7317)"
         clip-rule="evenodd"
         id="path266" />
    </clipPath>
    <clipPath
       clipPathUnits="userSpaceOnUse"
       id="clipPath270">
      <path
         d="m 615.44336,206.59759 c 5.26446,-7.91204 -5.98999,-24.65408 -25.13757,-37.39431 -19.14753,-12.74027 -38.93738,-16.6543 -44.20185,-8.74222 -5.26446,7.91205 5.98999,24.65405 25.13751,37.39432 19.14759,12.74026 38.93744,16.65426 44.20191,8.74221 z"
         transform="rotate(-33.638707,102.88276,1012.3106)"
         clip-rule="evenodd"
         id="path270" />
    </clipPath>
    <clipPath
       clipPathUnits="userSpaceOnUse"
       id="clipPath264">
      <path
         d="m 617.44336,204.59759 c 5.26446,-7.91204 -5.98999,-24.65408 -25.13757,-37.39431 -19.14753,-12.74027 -38.93738,-16.6543 -44.20185,-8.74222 -5.26446,7.91205 5.98999,24.65405 25.13751,37.39432 19.14759,12.74026 38.93744,16.65426 44.20191,8.74221 z"
         transform="rotate(-33.638707,107.19064,1014.6178)"
         clip-rule="evenodd"
         id="path264" />
    </clipPath>
    <clipPath
       clipPathUnits="userSpaceOnUse"
       id="clipPath272">
      <path
         d="m 620.80133,172.04407 c -2.62115,-9.13483 -22.66699,-11.3978 -44.77368,-5.05454 -22.10669,6.3433 -37.90283,18.89075 -35.28168,28.02558 2.62109,9.13482 22.66699,11.39782 44.77368,5.05453 22.10663,-6.34326 37.90283,-18.89075 35.28168,-28.02557 z"
         transform="rotate(16.010294,825.62064,-1805.6209)"
         clip-rule="evenodd"
         id="path272" />
    </clipPath>
  </defs>
  <g
     id="layer1"
     transform="translate(-3.4110733,-3.942103)">
    <path
       id="path263"
       d="m 80.285843,57.581078 c 0,-1.321629 -0.635536,-2.858567 -2.36895,-4.552033 -1.743233,-1.703049 -4.42112,-3.374924 -7.973671,-4.842892 -7.091267,-2.930225 -17.095283,-4.812576 -28.300301,-4.812576 v -6 c 11.793736,0 22.611176,1.969677 30.591683,5.267346 3.983337,1.645973 7.403915,3.68201 9.875175,6.096313 2.481079,2.423889 4.176064,5.413746 4.176064,8.843842 z M 41.642921,43.373577 c -11.205017,0 -21.209035,1.882351 -28.300304,4.812576 C 9.790068,49.654121 7.112185,51.325996 5.368953,53.029045 3.635538,54.722511 3,56.259449 3,57.581078 h -6 c 0,-3.430096 1.694983,-6.419953 4.176062,-8.843842 2.47126,-2.414303 5.891842,-4.45034 9.87518,-6.096313 7.980504,-3.297669 18.797946,-5.267346 30.591679,-5.267346 z M 3,57.581078 c 0,1.321624 0.635538,2.858566 2.368953,4.552024 1.743232,1.703057 4.421115,3.374932 7.973664,4.842896 7.091269,2.930221 17.095287,4.812576 28.300304,4.812576 v 6 c -11.793733,0 -22.611175,-1.969673 -30.591679,-5.267341 C 7.067904,70.875252 3.647322,68.839218 1.176062,66.424919 -1.305017,64.001022 -3,61.011169 -3,57.581078 Z m 38.642921,14.207496 c 11.205018,0 21.209034,-1.882355 28.300301,-4.812576 3.552551,-1.467964 6.230438,-3.139839 7.973671,-4.842896 1.733414,-1.693458 2.36895,-3.2304 2.36895,-4.552024 h 6 c 0,3.430091 -1.694985,6.419944 -4.176064,8.843841 -2.47126,2.414299 -5.891838,4.450333 -9.875175,6.096314 -7.980507,3.297668 -18.797947,5.267341 -30.591683,5.267341 z"
       style="fill:#d8b00f;fill-opacity:1;fill-rule:nonzero;stroke:none"
       transform="matrix(0.29370409,-0.19542266,-0.19542266,-0.29370409,17.359657,43.059036)"
       clip-path="url(#clipPath264)" />
    <path
       id="path265"
       d="m 80.285843,38.843773 c 0,-1.321629 -0.635536,-2.858566 -2.36895,-4.552033 -1.743233,-1.703048 -4.42112,-3.374923 -7.973671,-4.842891 -7.091267,-2.930224 -17.095283,-4.812577 -28.300301,-4.812577 v -6 c 11.793736,0 22.611176,1.969677 30.591683,5.267346 3.983337,1.645975 7.403915,3.682011 9.875175,6.096311 2.481079,2.423891 4.176064,5.413748 4.176064,8.843844 z M 41.642921,24.636272 c -11.205017,0 -21.209035,1.882353 -28.300304,4.812577 C 9.790068,30.916817 7.112185,32.588692 5.368953,34.29174 3.635538,35.985207 3,37.522144 3,38.843773 h -6 c 0,-3.430096 1.694983,-6.419953 4.176062,-8.843844 2.47126,-2.4143 5.891842,-4.450336 9.87518,-6.096311 7.980504,-3.297669 18.797946,-5.267346 30.591679,-5.267346 z M 3,38.843773 c 0,1.321625 0.635538,2.858566 2.368953,4.552025 1.743232,1.703056 4.421115,3.374927 7.973664,4.842895 7.091269,2.930222 17.095287,4.812577 28.300304,4.812577 v 6 c -11.793733,0 -22.611175,-1.969677 -30.591679,-5.267342 C 7.067904,52.137951 3.647322,50.101913 1.176062,47.687614 -1.305017,45.263721 -3,42.273865 -3,38.843773 Z M 41.642921,53.05127 c 11.205018,0 21.209034,-1.882355 28.300301,-4.812577 3.552551,-1.467968 6.230438,-3.139839 7.973671,-4.842895 1.733414,-1.693459 2.36895,-3.2304 2.36895,-4.552025 h 6 c 0,3.430092 -1.694985,6.419948 -4.176064,8.843841 -2.47126,2.414299 -5.891838,4.450337 -9.875175,6.096314 -7.980507,3.297665 -18.797947,5.267342 -30.591683,5.267342 z"
       style="fill:#d8b00f;fill-opacity:1;fill-rule:nonzero;stroke:none"
       transform="matrix(0.33909423,0.09729964,0.09729964,-0.33909423,0.43743641,27.129036)"
       clip-path="url(#clipPath266)" />
    <path
       id="path267"
       d="m 80.285843,72.784447 c 0,-1.321633 -0.635536,-2.858567 -2.36895,-4.552033 -1.743233,-1.703048 -4.42112,-3.374923 -7.973671,-4.842891 -7.091267,-2.930226 -17.095283,-4.812577 -28.300301,-4.812577 v -6 c 11.793736,0 22.611176,1.969677 30.591683,5.267346 3.983337,1.645973 7.403915,3.68201 9.875175,6.096313 2.481079,2.423889 4.176064,5.41375 4.176064,8.843842 z M 41.642921,58.576946 c -11.205017,0 -21.209035,1.882351 -28.300304,4.812577 C 9.790068,64.857491 7.112185,66.529366 5.368953,68.232414 3.635538,69.92588 3,71.462814 3,72.784447 h -6 c 0,-3.430092 1.694983,-6.419953 4.176062,-8.843842 2.47126,-2.414303 5.891842,-4.45034 9.87518,-6.096313 7.980504,-3.297669 18.797946,-5.267346 30.591679,-5.267346 z M 3,72.784447 c 0,1.321624 0.635538,2.858566 2.368953,4.552025 1.743232,1.703056 4.421115,3.374931 7.973664,4.842895 7.091269,2.930222 17.095287,4.812576 28.300304,4.812576 v 6 c -11.793733,0 -22.611175,-1.969673 -30.591679,-5.267341 C 7.067904,86.078621 3.647322,84.042587 1.176062,81.628288 -1.305017,79.204391 -3,76.214539 -3,72.784447 Z m 38.642921,14.207496 c 11.205018,0 21.209034,-1.882354 28.300301,-4.812576 3.552551,-1.467964 6.230438,-3.139839 7.973671,-4.842895 1.733414,-1.693459 2.36895,-3.230401 2.36895,-4.552025 h 6 c 0,3.430092 -1.694985,6.419944 -4.176064,8.843841 -2.47126,2.414299 -5.891838,4.450333 -9.875175,6.096314 -7.980507,3.297668 -18.797947,5.267341 -30.591683,5.267341 z"
       style="fill:#d8b00f;fill-opacity:1;fill-rule:nonzero;stroke:none"
       transform="matrix(0.15164929,0.31851951,0.31851951,-0.15164929,-11.788823,15.942196)"
       clip-path="url(#clipPath268)" />
    <path
       id="path269"
       d="m 80.285843,57.581078 c 0,-1.321629 -0.635536,-2.858567 -2.36895,-4.552033 -1.743233,-1.703049 -4.42112,-3.374924 -7.973671,-4.842892 -7.091267,-2.930225 -17.095283,-4.812576 -28.300301,-4.812576 v -6 c 11.793736,0 22.611176,1.969677 30.591683,5.267346 3.983337,1.645973 7.403915,3.68201 9.875175,6.096313 2.481079,2.423889 4.176064,5.413746 4.176064,8.843842 z M 41.642921,43.373577 c -11.205017,0 -21.209035,1.882351 -28.300304,4.812576 C 9.790068,49.654121 7.112185,51.325996 5.368953,53.029045 3.635538,54.722511 3,56.259449 3,57.581078 h -6 c 0,-3.430096 1.694983,-6.419953 4.176062,-8.843842 2.47126,-2.414303 5.891842,-4.45034 9.87518,-6.096313 7.980504,-3.297669 18.797946,-5.267346 30.591679,-5.267346 z M 3,57.581078 c 0,1.321624 0.635538,2.858566 2.368953,4.552024 1.743232,1.703057 4.421115,3.374932 7.973664,4.842896 7.091269,2.930221 17.095287,4.812576 28.300304,4.812576 v 6 c -11.793733,0 -22.611175,-1.969673 -30.591679,-5.267341 C 7.067904,70.875252 3.647322,68.839218 1.176062,66.424919 -1.305017,64.001022 -3,61.011169 -3,57.581078 Z m 38.642921,14.207496 c 11.205018,0 21.209034,-1.882355 28.300301,-4.812576 3.552551,-1.467964 6.230438,-3.139839 7.973671,-4.842896 1.733414,-1.693458 2.36895,-3.2304 2.36895,-4.552024 h 6 c 0,3.430091 -1.694985,6.419944 -4.176064,8.843841 -2.47126,2.414299 -5.891838,4.450333 -9.875175,6.096314 -7.980507,3.297668 -18.797947,5.267341 -30.591683,5.267341 z"
       style="fill:#d9d9d9;fill-opacity:1;fill-rule:nonzero;stroke:none"
       transform="matrix(0.29370409,-0.19542266,-0.19542266,-0.29370409,16.654287,42.353486)"
       clip-path="url(#clipPath270)" />
    <path
       id="path271"
       d="m 80.285843,38.843773 c 0,-1.321629 -0.635536,-2.858566 -2.36895,-4.552033 -1.743233,-1.703048 -4.42112,-3.374923 -7.973671,-4.842891 -7.091267,-2.930224 -17.095283,-4.812577 -28.300301,-4.812577 v -6 c 11.793736,0 22.611176,1.969677 30.591683,5.267346 3.983337,1.645975 7.403915,3.682011 9.875175,6.096311 2.481079,2.423891 4.176064,5.413748 4.176064,8.843844 z M 41.642921,24.636272 c -11.205017,0 -21.209035,1.882353 -28.300304,4.812577 C 9.790068,30.916817 7.112185,32.588692 5.368953,34.29174 3.635538,35.985207 3,37.522144 3,38.843773 h -6 c 0,-3.430096 1.694983,-6.419953 4.176062,-8.843844 2.47126,-2.4143 5.891842,-4.450336 9.87518,-6.096311 7.980504,-3.297669 18.797946,-5.267346 30.591679,-5.267346 z M 3,38.843773 c 0,1.321625 0.635538,2.858566 2.368953,4.552025 1.743232,1.703056 4.421115,3.374927 7.973664,4.842895 7.091269,2.930222 17.095287,4.812577 28.300304,4.812577 v 6 c -11.793733,0 -22.611175,-1.969677 -30.591679,-5.267342 C 7.067904,52.137951 3.647322,50.101913 1.176062,47.687614 -1.305017,45.263721 -3,42.273865 -3,38.843773 Z M 41.642921,53.05127 c 11.205018,0 21.209034,-1.882355 28.300301,-4.812577 3.552551,-1.467968 6.230438,-3.139839 7.973671,-4.842895 1.733414,-1.693459 2.36895,-3.2304 2.36895,-4.552025 h 6 c 0,3.430092 -1.694985,6.419948 -4.176064,8.843841 -2.47126,2.414299 -5.891838,4.450337 -9.875175,6.096314 -7.980507,3.297665 -18.797947,5.267342 -30.591683,5.267342 z"
       style="fill:#d9d9d9;fill-opacity:1;fill-rule:nonzero;stroke:none"
       transform="matrix(0.33909423,0.09729964,0.09729964,-0.33909423,-0.26812359,26.423486)"
       clip-path="url(#clipPath272)" />
    <path
       id="path273"
       d="m 80.285843,72.784447 c 0,-1.321633 -0.635536,-2.858567 -2.36895,-4.552033 -1.743233,-1.703048 -4.42112,-3.374923 -7.973671,-4.842891 -7.091267,-2.930226 -17.095283,-4.812577 -28.300301,-4.812577 v -6 c 11.793736,0 22.611176,1.969677 30.591683,5.267346 3.983337,1.645973 7.403915,3.68201 9.875175,6.096313 2.481079,2.423889 4.176064,5.41375 4.176064,8.843842 z M 41.642921,58.576946 c -11.205017,0 -21.209035,1.882351 -28.300304,4.812577 C 9.790068,64.857491 7.112185,66.529366 5.368953,68.232414 3.635538,69.92588 3,71.462814 3,72.784447 h -6 c 0,-3.430092 1.694983,-6.419953 4.176062,-8.843842 2.47126,-2.414303 5.891842,-4.45034 9.87518,-6.096313 7.980504,-3.297669 18.797946,-5.267346 30.591679,-5.267346 z M 3,72.784447 c 0,1.321624 0.635538,2.858566 2.368953,4.552025 1.743232,1.703056 4.421115,3.374931 7.973664,4.842895 7.091269,2.930222 17.095287,4.812576 28.300304,4.812576 v 6 c -11.793733,0 -22.611175,-1.969673 -30.591679,-5.267341 C 7.067904,86.078621 3.647322,84.042587 1.176062,81.628288 -1.305017,79.204391 -3,76.214539 -3,72.784447 Z m 38.642921,14.207496 c 11.205018,0 21.209034,-1.882354 28.300301,-4.812576 3.552551,-1.467964 6.230438,-3.139839 7.973671,-4.842895 1.733414,-1.693459 2.36895,-3.230401 2.36895,-4.552025 h 6 c 0,3.430092 -1.694985,6.419944 -4.176064,8.843841 -2.47126,2.414299 -5.891838,4.450333 -9.875175,6.096314 -7.980507,3.297668 -18.797947,5.267341 -30.591683,5.267341 z"
       style="fill:#d9d9d9;fill-opacity:1;fill-rule:nonzero;stroke:none"
       transform="matrix(0.15164929,0.31851951,0.31851951,-0.15164929,-12.494383,15.236646)"
       clip-path="url(#clipPath274)" />
    <path
       id="path275"
       d="m 20.686677,18.801356 c 0,1.69816 -1.37663,3.07479 -3.07479,3.07479 -1.69817,0 -3.0748,-1.37663 -3.0748,-3.07479 0,-1.69817 1.37663,-3.0748 3.0748,-3.0748 1.69816,0 3.07479,1.37663 3.07479,3.0748 z"
       style="fill:#000000;fill-opacity:0.25;fill-rule:nonzero;stroke:none;stroke-width:0.352778" />
    <path
       id="path276"
       d="m 19.981117,18.095806 c 0,1.69816 -1.37663,3.07479 -3.07479,3.07479 -1.69817,0 -3.0748,-1.37663 -3.0748,-3.07479 0,-1.69817 1.37663,-3.0748 3.0748,-3.0748 1.69816,0 3.07479,1.37663 3.07479,3.0748 z"
       style="fill:#d8b00f;fill-opacity:1;fill-rule:nonzero;stroke:none;stroke-width:0.352778" />
    <path
       id="path282"
       d="m 11.714857,26.133506 c 0,0.68192 -0.5528,1.23472 -1.23472,1.23472 -0.6819203,0 -1.2347206,-0.5528 -1.2347206,-1.23472 0,-0.68192 0.5528003,-1.23472 1.2347206,-1.23472 0.68192,0 1.23472,0.5528 1.23472,1.23472 z"
       style="fill:#d8b00f;fill-opacity:1;fill-rule:nonzero;stroke:none;stroke-width:0.352778" />
    <path
       id="path283"
       d="m 32.528837,19.783506 c 0,0.68192 -0.5528,1.23472 -1.23472,1.23472 -0.68192,0 -1.23472,-0.5528 -1.23472,-1.23472 0,-0.68192 0.5528,-1.23472 1.23472,-1.23472 0.68192,0 1.23472,0.5528 1.23472,1.23472 z"
       style="fill:#d8b00f;fill-opacity:1;fill-rule:nonzero;stroke:none;stroke-width:0.352778" />
    <path
       id="path284"
       d="m 10.656527,6.7307261 c 0,0.68192 -0.5528,1.23472 -1.2347206,1.23472 -0.68192,0 -1.23472,-0.5528 -1.23472,-1.23472 0,-0.68192 0.5528,-1.23472 1.23472,-1.23472 0.6819206,0 1.2347206,0.5528 1.2347206,1.23472 z"
       style="fill:#d8b00f;fill-opacity:1;fill-rule:nonzero;stroke:none;stroke-width:0.352778" />
    <text
       xml:space="preserve"
       style="font-style:normal;font-variant:normal;font-weight:normal;font-stretch:normal;font-size:19.7556px;line-height:0;font-family:Inter;-inkscape-font-specification:Inter;fill:#000000;stroke-width:0.264583"
       x="35.834"
       y="24.819448"
       id="text1"><tspan
         id="tspan1"
         style="font-style:normal;font-variant:normal;font-weight:900;font-stretch:normal;font-size:19.7556px;line-height:0;font-family:Inter;-inkscape-font-specification:'Inter Heavy';fill:#ffffff;stroke-width:0.264583"
         x="35.834"
         y="24.819448">Zvaž vědu!</tspan></text>
  </g>
</svg>
