<?xml version="1.0" encoding="UTF-8" standalone="no"?>
<svg
   viewBox="0 0 664.72 289.19"
   version="1.1"
   id="svg32"
   sodipodi:docname="hvezdarna_logo_barva.svg"
   inkscape:version="1.3.2 (091e20e, 2023-11-25, custom)"
   xmlns:inkscape="http://www.inkscape.org/namespaces/inkscape"
   xmlns:sodipodi="http://sodipodi.sourceforge.net/DTD/sodipodi-0.dtd"
   xmlns="http://www.w3.org/2000/svg"
   xmlns:svg="http://www.w3.org/2000/svg">
  <sodipodi:namedview
     id="namedview32"
     pagecolor="#ffffff"
     bordercolor="#000000"
     borderopacity="0.25"
     inkscape:showpageshadow="2"
     inkscape:pageopacity="0.0"
     inkscape:pagecheckerboard="0"
     inkscape:deskcolor="#d1d1d1"
     inkscape:zoom="0.57657906"
     inkscape:cx="207.25692"
     inkscape:cy="26.882697"
     inkscape:window-width="1366"
     inkscape:window-height="715"
     inkscape:window-x="263"
     inkscape:window-y="1072"
     inkscape:window-maximized="1"
     inkscape:current-layer="svg32" />
  <defs
     id="defs1">
    <style
       id="style1">.cls-1{fill:#002749;}.cls-2{fill:none;}.cls-3{fill:#e83f4b;}.cls-4{fill:#83d0f5;}.cls-5{fill:#66b32e;}</style>
    <filter
       style="color-interpolation-filters:sRGB;"
       inkscape:label="Duochrome"
       id="filter32"
       x="0"
       y="0"
       width="1"
       height="1">
      <feColorMatrix
         values="0.21 0.72 0.072 0 0 0.21 0.72 0.072 0 0 0.21 0.72 0.072 0 0 0 0 0 1 0 "
         id="feColorMatrix32"
         result="fbSourceGraphic" />
      <feColorMatrix
         result="fbSourceGraphicAlpha"
         in="fbSourceGraphic"
         values="0 0 0 -1 0 0 0 0 -1 0 0 0 0 -1 0 0 0 0 1 0"
         id="feColorMatrix34" />
      <feColorMatrix
         id="feColorMatrix35"
         type="luminanceToAlpha"
         result="colormatrix1"
         in="fbSourceGraphic" />
      <feFlood
         id="feFlood35"
         flood-opacity="1"
         flood-color="rgb(0,0,0)"
         result="flood1" />
      <feComposite
         id="feComposite35"
         in2="colormatrix1"
         operator="in"
         result="composite1" />
      <feFlood
         id="feFlood36"
         flood-opacity="1"
         flood-color="rgb(0,0,0)"
         result="flood2" />
      <feComposite
         id="feComposite36"
         in2="colormatrix1"
         result="composite2"
         operator="out" />
      <feComposite
         id="feComposite37"
         in="composite2"
         in2="composite1"
         k2="1"
         k3="1"
         operator="arithmetic"
         result="composite3" />
      <feColorMatrix
         id="feColorMatrix37"
         in="composite3"
         type="matrix"
         values="2 -1 0 0 0 0 2 -1 0 0 -1 0 2 0 0 0 0 0 1 0 "
         result="colormatrix2" />
      <feComposite
         id="feComposite38"
         in="colormatrix2"
         in2="composite3"
         operator="arithmetic"
         k2="0"
         result="composite4" />
      <feBlend
         id="feBlend38"
         in="composite4"
         in2="composite3"
         mode="normal"
         result="blend" />
      <feComposite
         id="feComposite39"
         in2="fbSourceGraphic"
         operator="in" />
    </filter>
    <filter
       style="color-interpolation-filters:sRGB;"
       inkscape:label="Duochrome"
       id="filter33"
       x="0"
       y="0"
       width="1"
       height="1">
      <feColorMatrix
         values="0.21 0.72 0.072 0 0 0.21 0.72 0.072 0 0 0.21 0.72 0.072 0 0 0 0 0 1 0 "
         id="feColorMatrix33"
         result="fbSourceGraphic" />
      <feColorMatrix
         result="fbSourceGraphicAlpha"
         in="fbSourceGraphic"
         values="0 0 0 -1 0 0 0 0 -1 0 0 0 0 -1 0 0 0 0 1 0"
         id="feColorMatrix39" />
      <feColorMatrix
         id="feColorMatrix40"
         type="luminanceToAlpha"
         result="colormatrix1"
         in="fbSourceGraphic" />
      <feFlood
         id="feFlood40"
         flood-opacity="1"
         flood-color="rgb(0,0,0)"
         result="flood1" />
      <feComposite
         id="feComposite40"
         in2="colormatrix1"
         operator="in"
         result="composite1" />
      <feFlood
         id="feFlood41"
         flood-opacity="1"
         flood-color="rgb(0,0,0)"
         result="flood2" />
      <feComposite
         id="feComposite41"
         in2="colormatrix1"
         result="composite2"
         operator="out" />
      <feComposite
         id="feComposite42"
         in="composite2"
         in2="composite1"
         k2="1"
         k3="1"
         operator="arithmetic"
         result="composite3" />
      <feColorMatrix
         id="feColorMatrix42"
         in="composite3"
         type="matrix"
         values="2 -1 0 0 0 0 2 -1 0 0 -1 0 2 0 0 0 0 0 1 0 "
         result="colormatrix2" />
      <feComposite
         id="feComposite43"
         in="colormatrix2"
         in2="composite3"
         operator="arithmetic"
         k2="0"
         result="composite4" />
      <feBlend
         id="feBlend43"
         in="composite4"
         in2="composite3"
         mode="normal"
         result="blend" />
      <feComposite
         id="feComposite44"
         in2="fbSourceGraphic"
         operator="in" />
    </filter>
  </defs>
  <g
     id="Vrstva_4"
     data-name="Vrstva 4"
     style="filter:url(#filter32)">
    <polygon
       class="cls-1"
       points="363.6 119.96 343.94 119.96 343.94 102.1 338.59 102.1 338.59 143.18 343.94 143.18 343.94 124.65 363.6 124.65 363.6 143.18 368.95 143.18 368.95 102.1 363.6 102.1 363.6 119.96"
       id="polygon1" />
    <polygon
       class="cls-1"
       points="384.75 143.18 389.39 143.18 401.16 113.78 395.8 113.78 387.09 136.09 378.36 113.82 378.35 113.78 372.99 113.78 384.74 143.14 384.75 143.18"
       id="polygon2" />
    <path
       class="cls-1"
       d="M405.71,139.29a13.41,13.41,0,0,0,4.37,3.09,13.1,13.1,0,0,0,5.33,1.12h.2a11.74,11.74,0,0,0,4.05-.67A13.85,13.85,0,0,0,423,141a13,13,0,0,0,2.62-2.62,17.14,17.14,0,0,0,1.84-3.06l.05-.1H422.2l0,0a14.79,14.79,0,0,1-1,1.14,6.13,6.13,0,0,1-1.45,1.13,9.75,9.75,0,0,1-1.92.91,7.27,7.27,0,0,1-2.42.38,7.08,7.08,0,0,1-3-.69,8.85,8.85,0,0,1-2.61-1.77,9.82,9.82,0,0,1-1.89-2.58,8.41,8.41,0,0,1-.84-2.94h20.77v-.06l.12-.73a7.61,7.61,0,0,0,.13-.77,8.94,8.94,0,0,0,.07-1.12,16.54,16.54,0,0,0-1.06-6,14.47,14.47,0,0,0-2.8-4.66,12.48,12.48,0,0,0-14.34-2.9,13.32,13.32,0,0,0-4.27,3.09,15.28,15.28,0,0,0-2.94,4.75,17.05,17.05,0,0,0-1.05,6.06,16.3,16.3,0,0,0,1.05,6.09A15.41,15.41,0,0,0,405.71,139.29Zm9.38-21.12a6.78,6.78,0,0,1,5,2.23,10.55,10.55,0,0,1,2.67,6.07H407.05a10.21,10.21,0,0,1,1-3.29,9.54,9.54,0,0,1,1.86-2.65,8.2,8.2,0,0,1,2.39-1.73A6.56,6.56,0,0,1,415.09,118.17Z"
       id="path2" />
    <polygon
       class="cls-1"
       points="412.77 109.38 417.38 109.38 423.27 101.54 423.36 101.43 418.29 101.43 415.09 105.95 411.88 101.46 411.86 101.43 406.83 101.43 412.75 109.35 412.77 109.38"
       id="polygon3" />
    <polygon
       class="cls-1"
       points="450.69 118.14 450.7 118.12 450.7 113.78 430.4 113.78 430.4 118.49 444.65 118.49 430.42 138.85 430.4 138.87 430.4 143.18 451.37 143.18 451.37 138.5 436.48 138.5 450.69 118.14"
       id="polygon4" />
    <path
       class="cls-1"
       d="M461.53,142.4a13.25,13.25,0,0,0,5.33,1.1,13,13,0,0,0,3.84-.51,11.14,11.14,0,0,0,2.77-1.25,11.36,11.36,0,0,0,2.12-1.74l1.26,3.14,0,0h3.71V102.1h-5v15.15a12.07,12.07,0,0,0-2.08-1.81,14.37,14.37,0,0,0-2.75-1.36,10.93,10.93,0,0,0-3.86-.62,12.9,12.9,0,0,0-5.33,1.12,13.35,13.35,0,0,0-4.39,3.11,14.58,14.58,0,0,0-2.93,4.73,17.78,17.78,0,0,0,0,12.15,14.58,14.58,0,0,0,2.93,4.73A13.33,13.33,0,0,0,461.53,142.4Zm-3.39-13.92a11.63,11.63,0,0,1,.74-4.23,10.46,10.46,0,0,1,2-3.25,8.64,8.64,0,0,1,2.88-2.09,8.39,8.39,0,0,1,6.89,0A8.64,8.64,0,0,1,473.5,121a10.35,10.35,0,0,1,2,3.25,12.49,12.49,0,0,1,0,8.47,10.18,10.18,0,0,1-2,3.26,8.53,8.53,0,0,1-2.88,2.1,8.39,8.39,0,0,1-6.89,0,8.53,8.53,0,0,1-2.88-2.1,10.18,10.18,0,0,1-2-3.26A11.72,11.72,0,0,1,458.14,128.48Z"
       id="path4" />
    <path
       class="cls-1"
       d="M488.93,140.91a9.58,9.58,0,0,0,3.07,1.92,11.58,11.58,0,0,0,4,.67,13.08,13.08,0,0,0,3.86-.51,11.07,11.07,0,0,0,2.74-1.25,10.71,10.71,0,0,0,2.16-1.74l1.26,3.14,0,0h3.67V123.62a9.1,9.1,0,0,0-.8-3.93,9.88,9.88,0,0,0-2.3-3.23,11.1,11.1,0,0,0-3.51-2.17,12.12,12.12,0,0,0-4.5-.83,12.79,12.79,0,0,0-4.41.7,10.2,10.2,0,0,0-3.32,1.89,9.89,9.89,0,0,0-2.27,2.81,10.51,10.51,0,0,0-1.12,3.45v.08h5.34l0,0a5.91,5.91,0,0,1,1.78-3.07,6.05,6.05,0,0,1,4-1.1,6.13,6.13,0,0,1,4.42,1.63,5.14,5.14,0,0,1,1.69,3.82v1.55h-.37a46.39,46.39,0,0,0-8.64.67,17.78,17.78,0,0,0-5.71,2,7.78,7.78,0,0,0-2.95,3,8.53,8.53,0,0,0-.86,3.84,8.09,8.09,0,0,0,.74,3.42A8.64,8.64,0,0,0,488.93,140.91Zm15.81-11.06v2.21a5.47,5.47,0,0,1-.65,2.41,7.5,7.5,0,0,1-1.76,2.14,9.16,9.16,0,0,1-2.74,1.58,9.87,9.87,0,0,1-3.56.63,4.93,4.93,0,0,1-3.48-1.19,3.54,3.54,0,0,1-1.31-2.65,4.79,4.79,0,0,1,.47-2.15,4.19,4.19,0,0,1,1.93-1.59,14.23,14.23,0,0,1,4.11-1A56.17,56.17,0,0,1,504.74,129.85Z"
       id="path5" />
    <polygon
       class="cls-1"
       points="506.17 101.29 506.25 101.17 501.19 101.17 497.26 109.02 497.21 109.13 500.63 109.13 506.17 101.29"
       id="polygon5" />
    <path
       class="cls-1"
       d="M526.2,114a12.38,12.38,0,0,0-2.68,1.29,11,11,0,0,0-2.07,1.68l-1.26-3.17v0h-3.71v29.4h5V126.54a8.07,8.07,0,0,1,2.14-5.87,7.47,7.47,0,0,1,5.57-2.18h1.37v-5h-.71A11,11,0,0,0,526.2,114Z"
       id="path6" />
    <path
       class="cls-1"
       d="M556,117a11.58,11.58,0,0,0-3.63-2.62,10.33,10.33,0,0,0-4.42-1,11,11,0,0,0-3.68.56,12.86,12.86,0,0,0-2.68,1.29,11,11,0,0,0-2.06,1.68l-1.26-3.17,0,0h-3.7v29.4h5v-17a8.09,8.09,0,0,1,2.13-5.87,7.5,7.5,0,0,1,5.57-2.19,6.62,6.62,0,0,1,5,2.2,8.21,8.21,0,0,1,1.56,2.56,9,9,0,0,1,.58,3.3v17h5v-17a14.18,14.18,0,0,0-.91-5.19A12.17,12.17,0,0,0,556,117Z"
       id="path7" />
    <path
       class="cls-1"
       d="M584.25,143.14l0,0H588V123.62a9.7,9.7,0,0,0-.82-4,9.85,9.85,0,0,0-2.28-3.21,11.27,11.27,0,0,0-3.53-2.19,12.19,12.19,0,0,0-4.49-.81,12.94,12.94,0,0,0-4.4.69,10.27,10.27,0,0,0-3.33,1.9,9.87,9.87,0,0,0-2.27,2.83,10.56,10.56,0,0,0-1.12,3.43v.08H571l0,0a5.83,5.83,0,0,1,1.79-3.06,6,6,0,0,1,4-1.11,6.16,6.16,0,0,1,4.41,1.63,5.16,5.16,0,0,1,1.71,3.82v1.55a50.24,50.24,0,0,0-9,.68,17.6,17.6,0,0,0-5.72,2,7.58,7.58,0,0,0-3,3,8.69,8.69,0,0,0-.85,3.84,8.39,8.39,0,0,0,.72,3.42,9,9,0,0,0,2,2.82,9.14,9.14,0,0,0,3.07,1.9,11.13,11.13,0,0,0,4,.69,13,13,0,0,0,3.86-.51,10.9,10.9,0,0,0,2.74-1.25A10.71,10.71,0,0,0,583,140Zm-10-4.32a5,5,0,0,1-3.49-1.19,3.56,3.56,0,0,1-1.3-2.65,4.74,4.74,0,0,1,.47-2.14,3.89,3.89,0,0,1,1.92-1.58,15,15,0,0,1,4.12-1,53.89,53.89,0,0,1,7-.37v2.21a5.15,5.15,0,0,1-.64,2.42,7.65,7.65,0,0,1-1.78,2.15,9.53,9.53,0,0,1-2.76,1.57A9.94,9.94,0,0,1,574.23,138.82Z"
       id="path8" />
    <path
       class="cls-1"
       d="M342.1,203.81a11.08,11.08,0,0,0,4,.69A13,13,0,0,0,350,204a11.15,11.15,0,0,0,2.75-1.25,11,11,0,0,0,2.16-1.74l1.26,3.14,0,0h3.67V184.62a9.54,9.54,0,0,0-.82-4,9.85,9.85,0,0,0-2.28-3.21,11.27,11.27,0,0,0-3.53-2.19,12.19,12.19,0,0,0-4.49-.81,12.94,12.94,0,0,0-4.4.69,10.22,10.22,0,0,0-3.32,1.9,9.55,9.55,0,0,0-2.27,2.83,10.1,10.1,0,0,0-1.12,3.43v.08h5.34v0a5.12,5.12,0,0,1,5.77-4.17,6.14,6.14,0,0,1,4.41,1.63,5.12,5.12,0,0,1,1.71,3.82v1.55a50.32,50.32,0,0,0-9,.68,17.6,17.6,0,0,0-5.72,2,7.65,7.65,0,0,0-3,3,8.68,8.68,0,0,0-.84,3.84,8.23,8.23,0,0,0,.72,3.42,8.85,8.85,0,0,0,2,2.82A9,9,0,0,0,342.1,203.81Zm12.74-13v2.21a5,5,0,0,1-.64,2.42,7.65,7.65,0,0,1-1.78,2.15,9.47,9.47,0,0,1-2.75,1.57,10,10,0,0,1-3.55.62,5,5,0,0,1-3.49-1.19,3.55,3.55,0,0,1-1.29-2.65,4.74,4.74,0,0,1,.46-2.14,3.89,3.89,0,0,1,1.92-1.58,15.1,15.1,0,0,1,4.12-1A54,54,0,0,1,354.84,190.85Z"
       id="path9" />
    <path
       class="cls-1"
       d="M395.51,204.5a13.24,13.24,0,0,0,9.71-4.2,14.59,14.59,0,0,0,2.94-4.75,17.88,17.88,0,0,0,0-12.13,14.61,14.61,0,0,0-2.94-4.73,13.25,13.25,0,0,0-4.39-3.11,12.89,12.89,0,0,0-5.32-1.12,11.89,11.89,0,0,0-6.61,1.85,10.26,10.26,0,0,0-2.13,1.68l-1.26-3.17,0,0h-3.7v39.81h5V200.72a9.48,9.48,0,0,0,2.08,1.83,15.26,15.26,0,0,0,2.74,1.32A10.71,10.71,0,0,0,395.51,204.5Zm-3.77-5.42a8.73,8.73,0,0,1-2.88-2.1,10.36,10.36,0,0,1-2-3.26,12.49,12.49,0,0,1,0-8.47,10.66,10.66,0,0,1,2-3.25,8.84,8.84,0,0,1,2.88-2.09,8.39,8.39,0,0,1,6.89,0,8.78,8.78,0,0,1,2.89,2.09,10.64,10.64,0,0,1,2,3.25,12.33,12.33,0,0,1,0,8.47,10.34,10.34,0,0,1-2,3.26,8.66,8.66,0,0,1-2.89,2.1,8.39,8.39,0,0,1-6.89,0Z"
       id="path10" />
    <rect
       class="cls-1"
       x="414.7"
       y="163.1"
       width="5.03"
       height="41.08"
       id="rect10" />
    <path
       class="cls-1"
       d="M445.88,177.46a11.27,11.27,0,0,0-3.53-2.19,12.19,12.19,0,0,0-4.49-.81,12.94,12.94,0,0,0-4.4.69,10.22,10.22,0,0,0-3.32,1.9,9.55,9.55,0,0,0-2.27,2.83,10.1,10.1,0,0,0-1.12,3.43l0,.08h5.35v0a5.89,5.89,0,0,1,1.79-3.06,6,6,0,0,1,4-1.11,6.16,6.16,0,0,1,4.41,1.63,5.12,5.12,0,0,1,1.71,3.82v1.55a50.32,50.32,0,0,0-9,.68,17.6,17.6,0,0,0-5.72,2,7.65,7.65,0,0,0-2.95,3,8.69,8.69,0,0,0-.85,3.84,8.23,8.23,0,0,0,.73,3.42,9,9,0,0,0,2,2.82,9.24,9.24,0,0,0,3.07,1.9,11.17,11.17,0,0,0,4,.69,13,13,0,0,0,3.86-.51,11.15,11.15,0,0,0,2.75-1.25A11,11,0,0,0,444,201l1.26,3.14v0H449V184.62a9.7,9.7,0,0,0-.82-4A9.85,9.85,0,0,0,445.88,177.46Zm-10.62,22.36a5,5,0,0,1-3.49-1.19,3.55,3.55,0,0,1-1.29-2.65,4.74,4.74,0,0,1,.46-2.14,3.89,3.89,0,0,1,1.92-1.58,15.1,15.1,0,0,1,4.12-1,54,54,0,0,1,7-.37v2.21a5.15,5.15,0,0,1-.64,2.42,7.65,7.65,0,0,1-1.78,2.15,9.47,9.47,0,0,1-2.75,1.57A10,10,0,0,1,435.26,199.82Z"
       id="path11" />
    <path
       class="cls-1"
       d="M477.2,178a11.58,11.58,0,0,0-3.63-2.62,10.37,10.37,0,0,0-4.42-1,11,11,0,0,0-3.68.56,12.62,12.62,0,0,0-2.68,1.29,11,11,0,0,0-2.06,1.68l-1.26-3.17,0,0h-3.71v29.4h5v-17a8,8,0,0,1,2.13-5.87,7.48,7.48,0,0,1,5.57-2.19,6.6,6.6,0,0,1,2.72.57,6.69,6.69,0,0,1,2.24,1.63,8.21,8.21,0,0,1,1.56,2.56,9,9,0,0,1,.58,3.3v17h5v-17a14.39,14.39,0,0,0-.91-5.19A12.34,12.34,0,0,0,477.2,178Z"
       id="path12" />
    <path
       class="cls-1"
       d="M508.08,178.5a12.34,12.34,0,0,0-9.21-4,12.36,12.36,0,0,0-5.14,1.12,13.16,13.16,0,0,0-4.29,3.11,15,15,0,0,0-2.9,4.73,17.78,17.78,0,0,0,0,12.15,14.58,14.58,0,0,0,2.93,4.73,13.24,13.24,0,0,0,9.72,4.2,12.35,12.35,0,0,0,4.23-.69,13.1,13.1,0,0,0,3.4-1.79,12.42,12.42,0,0,0,2.61-2.61,18.76,18.76,0,0,0,1.85-3.08l.05-.1H506l0,0a9.89,9.89,0,0,1-1,1.15,6.17,6.17,0,0,1-1.46,1.12,13.9,13.9,0,0,1-1.94.9,6.9,6.9,0,0,1-2.4.39,7.37,7.37,0,0,1-3-.68,9,9,0,0,1-2.61-1.78,9.73,9.73,0,0,1-1.86-2.58,8.24,8.24,0,0,1-.86-2.94h20.77v-.06c0-.24.09-.48.13-.73s.08-.47.13-.78a8.83,8.83,0,0,0,.06-1.11,17,17,0,0,0-1-6A14.54,14.54,0,0,0,508.08,178.5Zm-9.21.67a6.8,6.8,0,0,1,5,2.25,10.58,10.58,0,0,1,2.66,6.05H490.83a11.33,11.33,0,0,1,1-3.29,9.67,9.67,0,0,1,1.83-2.65,8.47,8.47,0,0,1,2.42-1.73A6.52,6.52,0,0,1,498.87,179.17Z"
       id="path13" />
    <path
       class="cls-1"
       d="M523.91,167h-4.37v4.29a3.54,3.54,0,0,1-.84,2.61,3.59,3.59,0,0,1-2.64.88H513.7v4.71h5.21v15.19a11.13,11.13,0,0,0,.69,4,9.3,9.3,0,0,0,1.87,3.07,8.71,8.71,0,0,0,2.72,2,7.54,7.54,0,0,0,3.23.72,6.71,6.71,0,0,0,2.25-.32,4.19,4.19,0,0,0,.71-.33l0,0v-4.39l-.11.07a1.24,1.24,0,0,1-.42.18,5.22,5.22,0,0,1-4.66-1.22,5.21,5.21,0,0,1-1.31-3.79V179.49h6.5v-4.71h-6.5Z"
       id="path14" />
    <path
       class="cls-1"
       d="M554.52,177.46a11.26,11.26,0,0,0-3.52-2.17,12.08,12.08,0,0,0-4.5-.83,12.7,12.7,0,0,0-4.4.7,10.2,10.2,0,0,0-3.32,1.89,9.93,9.93,0,0,0-2.28,2.81,10.49,10.49,0,0,0-1.11,3.45l0,.08h5.35v0a5.86,5.86,0,0,1,1.79-3.07,6,6,0,0,1,4-1.1,6.17,6.17,0,0,1,4.43,1.63,5.17,5.17,0,0,1,1.69,3.82v1.55a47.64,47.64,0,0,0-9,.67,17.62,17.62,0,0,0-5.7,2,7.65,7.65,0,0,0-2.95,3,8.41,8.41,0,0,0-.87,3.84,8.09,8.09,0,0,0,.74,3.42,8.79,8.79,0,0,0,2,2.82,9.69,9.69,0,0,0,3.07,1.92,11.58,11.58,0,0,0,4,.67,13,13,0,0,0,3.86-.51,11.15,11.15,0,0,0,2.75-1.25,11,11,0,0,0,2.16-1.74l1.26,3.14v0h3.68V184.62a9.1,9.1,0,0,0-.8-3.93A10,10,0,0,0,554.52,177.46ZM543.9,199.82a4.93,4.93,0,0,1-3.48-1.19,3.54,3.54,0,0,1-1.31-2.65,4.79,4.79,0,0,1,.47-2.15,4.17,4.17,0,0,1,1.94-1.59,14.06,14.06,0,0,1,4.1-1,56.24,56.24,0,0,1,7-.35v2.21a5.36,5.36,0,0,1-.66,2.41,7.5,7.5,0,0,1-1.76,2.14,8.92,8.92,0,0,1-2.74,1.58A9.87,9.87,0,0,1,543.9,199.82Z"
       id="path15" />
    <polygon
       class="cls-1"
       points="554.05 162.29 554.13 162.18 549.06 162.18 545.14 170.02 545.09 170.13 548.51 170.13 554.05 162.29"
       id="polygon15" />
    <path
       class="cls-1"
       d="M574.07,175a12.62,12.62,0,0,0-2.68,1.29,11,11,0,0,0-2.06,1.68l-1.26-3.17,0,0h-3.71v29.4h5V187.54a8.06,8.06,0,0,1,2.13-5.87,7.47,7.47,0,0,1,5.57-2.18h1.37v-5h-.7A11,11,0,0,0,574.07,175Z"
       id="path16" />
    <path
       class="cls-1"
       d="M584.85,163.41a3,3,0,0,0-2.22.9,3.3,3.3,0,0,0,0,4.53,3,3,0,0,0,2.22.91,3.17,3.17,0,1,0,0-6.34Z"
       id="path17" />
    <rect
       class="cls-1"
       x="582.37"
       y="174.78"
       width="5.03"
       height="29.41"
       id="rect17" />
    <path
       class="cls-1"
       d="M613.93,191.76a8,8,0,0,1-2.15,5.87,7.54,7.54,0,0,1-5.59,2.19,6.79,6.79,0,0,1-2.76-.58,6.72,6.72,0,0,1-2.24-1.65,7.8,7.8,0,0,1-1.51-2.55,9.25,9.25,0,0,1-.55-3.28v-17h-5v17a14.21,14.21,0,0,0,.91,5.15,12.63,12.63,0,0,0,2.49,4,11.78,11.78,0,0,0,3.65,2.62,10.59,10.59,0,0,0,4.42.94,11.76,11.76,0,0,0,3.66-.51,11.32,11.32,0,0,0,2.66-1.25A9.55,9.55,0,0,0,614,201l1.26,3.13,0,0h3.67v-29.4h-5Z"
       id="path18" />
    <path
       class="cls-1"
       d="M663.94,181.5a11.51,11.51,0,0,0-2.16-3.83,9.23,9.23,0,0,0-3.16-2.4,9,9,0,0,0-3.74-.81,8.76,8.76,0,0,0-4,.82,10.69,10.69,0,0,0-4.77,4.31,9.78,9.78,0,0,0-1.83-2.51,10.65,10.65,0,0,0-2.52-1.8,7.91,7.91,0,0,0-3.78-.82,8.22,8.22,0,0,0-3.2.56,10.14,10.14,0,0,0-2.24,1.29,8.81,8.81,0,0,0-1.68,1.66l-1.26-3.15v0h-3.71v29.4h5V186.56a8.55,8.55,0,0,1,.5-3,7.93,7.93,0,0,1,1.36-2.36,5.9,5.9,0,0,1,2-1.54,5.24,5.24,0,0,1,2.27-.53,5.36,5.36,0,0,1,4.12,1.85,8.06,8.06,0,0,1,1.68,5.54v17.62h5V186.56a7.66,7.66,0,0,1,1.83-5.41,5.71,5.71,0,0,1,4.28-2A5.31,5.31,0,0,1,658,181a8.11,8.11,0,0,1,1.66,5.54v17.62h5V186.56A15.44,15.44,0,0,0,663.94,181.5Z"
       id="path19" />
    <path
       class="cls-1"
       d="M364.2,245.51a13,13,0,0,0-3-2.18,10.34,10.34,0,0,0,2.19-1.82A10.81,10.81,0,0,0,365,239a8.88,8.88,0,0,0,.72-3.78,10.9,10.9,0,0,0-.89-4.39,11.1,11.1,0,0,0-2.46-3.53,11.23,11.23,0,0,0-3.72-2.35,12.89,12.89,0,0,0-4.71-.84H338.59v41.08h15.66a13.59,13.59,0,0,0,9.36-3.59,12,12,0,0,0,2.75-3.77,11.28,11.28,0,0,0,0-9.18A11.92,11.92,0,0,0,364.2,245.51Zm-4-8a6.52,6.52,0,0,1-1.42,1.92,6.63,6.63,0,0,1-2.15,1.36,7.2,7.2,0,0,1-2.67.5h-10V228.78h10a6.83,6.83,0,0,1,2.67.52,6.62,6.62,0,0,1,2.15,1.38,6.39,6.39,0,0,1,1.41,2,6,6,0,0,1,.52,2.51A5.37,5.37,0,0,1,360.17,237.52ZM343.94,246h10.31a8.28,8.28,0,0,1,3.11.58,8.18,8.18,0,0,1,2.44,1.54,7,7,0,0,1,1.6,2.25,6.43,6.43,0,0,1,.58,2.7,7.16,7.16,0,0,1-2.15,5.28,7.62,7.62,0,0,1-5.58,2.14H343.94Z"
       id="path20" />
    <path
       class="cls-1"
       d="M382.84,236a12.62,12.62,0,0,0-2.68,1.29A11,11,0,0,0,378.1,239l-1.26-3.17,0,0h-3.71v29.4h5V248.54a8.06,8.06,0,0,1,2.13-5.87,7.47,7.47,0,0,1,5.57-2.18h1.37v-5h-.7A11,11,0,0,0,382.84,236Z"
       id="path21" />
    <path
       class="cls-1"
       d="M412.59,239a11.65,11.65,0,0,0-3.62-2.62,10.38,10.38,0,0,0-4.43-1,11,11,0,0,0-3.67.56,12.38,12.38,0,0,0-2.68,1.29,11,11,0,0,0-2.07,1.68l-1.26-3.17v0h-3.71v29.4h5v-17a8.05,8.05,0,0,1,2.14-5.87,7.47,7.47,0,0,1,5.56-2.19,6.57,6.57,0,0,1,2.72.57,6.72,6.72,0,0,1,2.25,1.63,8.19,8.19,0,0,1,1.55,2.56,9,9,0,0,1,.59,3.3v17h5v-17a14.39,14.39,0,0,0-.91-5.19A12.36,12.36,0,0,0,412.59,239Z"
       id="path22" />
    <path
       class="cls-1"
       d="M444.28,239.69a13.17,13.17,0,0,0-4.37-3.11,13.24,13.24,0,0,0-10.66,0,13.31,13.31,0,0,0-4.38,3.11,14.61,14.61,0,0,0-2.94,4.73,17.78,17.78,0,0,0,0,12.15,14.61,14.61,0,0,0,2.94,4.73,13.37,13.37,0,0,0,15,3.1,13,13,0,0,0,4.37-3.1,14.94,14.94,0,0,0,2.94-4.75,17.57,17.57,0,0,0,0-12.13A15,15,0,0,0,444.28,239.69Zm-1,10.79a11.72,11.72,0,0,1-.74,4.24,10.49,10.49,0,0,1-1.94,3.26,8.52,8.52,0,0,1-2.77,2.1,7.53,7.53,0,0,1-6.49,0,8.81,8.81,0,0,1-2.82-2.1,9.87,9.87,0,0,1-1.94-3.26,13,13,0,0,1,0-8.47,10.14,10.14,0,0,1,1.94-3.25,9,9,0,0,1,2.82-2.09,7.67,7.67,0,0,1,3.25-.74,7.56,7.56,0,0,1,3.24.74,8.49,8.49,0,0,1,2.77,2.09,10.79,10.79,0,0,1,1.94,3.25A11.63,11.63,0,0,1,443.27,250.48Z"
       id="path23" />
  </g>
  <g
     id="logo"
     style="filter:url(#filter33)">
    <ellipse
       class="cls-2"
       cx="150.93"
       cy="151.37"
       rx="123.46"
       ry="119.72"
       transform="translate(-62.83 152.41) rotate(-45.36)"
       id="ellipse23" />
    <path
       class="cls-3"
       d="M238,63.66c-.94-.87-1.89-1.71-2.84-2.55A123.4,123.4,0,0,1,238.6,232.9C193,281.76,116.68,285.34,66.7,241.63c.9.89,1.81,1.78,2.75,2.65,49.88,46.38,128.27,43.6,174.73-6.19A123.41,123.41,0,0,0,238,63.66Z"
       id="path24" />
    <path
       class="cls-3"
       d="M54.55,61.76c50.07-53.65,133.93-57.5,188.71-9.33-.91-.89-1.82-1.77-2.76-2.64C185.82-1,99.9,2,49,56.57a135.27,135.27,0,0,0,6.79,191.2c.94.86,1.88,1.71,2.83,2.55A135.27,135.27,0,0,1,54.55,61.76Z"
       id="path25" />
    <path
       class="cls-4"
       d="M63.25,69.85c45.6-48.86,121.92-52.44,171.9-8.74-.9-.89-1.81-1.77-2.75-2.64C182.52,12.09,104.13,14.86,57.67,64.66a123.39,123.39,0,0,0,6.19,174.42c.94.87,1.89,1.72,2.84,2.55A123.39,123.39,0,0,1,63.25,69.85Z"
       id="path26" />
    <path
       class="cls-4"
       d="M246.09,55c-.94-.87-1.88-1.72-2.83-2.55a135.26,135.26,0,0,1,4,188.55c-50.06,53.65-133.93,57.51-188.71,9.34.91.89,1.82,1.77,2.76,2.64C116,303.8,202,300.76,252.88,246.17A135.25,135.25,0,0,0,246.09,55Z"
       id="path27" />
    <path
       class="cls-5"
       d="M247.3,241a135.26,135.26,0,0,0-4-188.55C188.48,4.26,104.62,8.11,54.55,61.76a135.27,135.27,0,0,0,4,188.56C113.37,298.49,197.24,294.63,247.3,241Zm-177.85,3.3c-.94-.87-1.85-1.76-2.75-2.65s-1.9-1.68-2.84-2.55A123.39,123.39,0,0,1,57.67,64.66c46.46-49.8,124.85-52.57,174.73-6.19.94.87,1.85,1.75,2.75,2.64s1.9,1.68,2.84,2.55a123.41,123.41,0,0,1,6.19,174.43C197.72,287.88,119.33,290.66,69.45,244.28Z"
       id="path28" />
    <path
       class="cls-1"
       d="M247.3,241a135.26,135.26,0,0,0-4-188.55C188.48,4.26,104.62,8.11,54.55,61.76a135.27,135.27,0,0,0,4,188.56C113.37,298.49,197.24,294.63,247.3,241Zm-177.85,3.3c-.94-.87-1.85-1.76-2.75-2.65s-1.9-1.68-2.84-2.55A123.39,123.39,0,0,1,57.67,64.66c46.46-49.8,124.85-52.57,174.73-6.19.94.87,1.85,1.75,2.75,2.64s1.9,1.68,2.84,2.55a123.41,123.41,0,0,1,6.19,174.43C197.72,287.88,119.33,290.66,69.45,244.28Z"
       id="path29" />
    <path
       class="cls-4"
       d="M49.22,3.89h-.61s0,.1,0,.15a4,4,0,0,1-4,4.05H8.1v36.4a4,4,0,0,1-3.44,4,4,4,0,0,0,8.09-.09V12H49.22a4,4,0,1,0,0-8.09Z"
       id="path30" />
    <path
       class="cls-3"
       d="M4.65,7.94a4.05,4.05,0,0,1,4-4.05H48.61a4,4,0,0,0-4-3.89H4.05A4,4,0,0,0,0,4V44.49a4.05,4.05,0,0,0,4.05,4,4.07,4.07,0,0,0,.61-.07s0-.06,0-.09Z"
       id="path31" />
    <path
       class="cls-1"
       d="M8.1,44.49V8.09H44.57a4,4,0,0,0,4-4s0-.1,0-.15H8.7a4.05,4.05,0,0,0-4,4.05V48.38s0,.06,0,.09A4,4,0,0,0,8.1,44.49Z"
       id="path32" />
  </g>
</svg>
