<?xml version="1.0" encoding="utf-8"?>
<!-- Generator: Adobe Illustrator 15.1.0, SVG Export Plug-In . SVG Version: 6.00 Build 0)  -->
<!DOCTYPE svg PUBLIC "-//W3C//DTD SVG 1.1//EN" "http://www.w3.org/Graphics/SVG/1.1/DTD/svg11.dtd">
<svg version="1.1" id="Vrstva_1" xmlns="http://www.w3.org/2000/svg" xmlns:xlink="http://www.w3.org/1999/xlink" x="0px" y="0px"
	 width="123.115px" height="30.589px" viewBox="0 0 123.115 30.589" enable-background="new 0 0 123.115 30.589"
	 xml:space="preserve">
<g>
	<path fill-rule="evenodd" clip-rule="evenodd" fill="#01ACC3" d="M60.286,18.813c0.859,0.647,2.718,0.703,3.626,0l3.465-2.879
		c0.576-0.445,0.787-1.131,0.777-1.795V7.133c0-0.958-0.836-1.863-1.371-2.164c-0.338-0.189-0.984-0.231-1.549,0.322l-1.59,1.599
		c-0.886,0.891-2.335,0.891-3.22,0L58.82,5.275c-0.54-0.538-1.159-0.47-1.552-0.298c-0.671,0.292-1.355,1.205-1.355,2.156v7.006
		c-0.002,0.747,0.366,1.298,0.882,1.769L60.286,18.813L60.286,18.813z"/>
	<path fill-rule="evenodd" clip-rule="evenodd" fill="#EC5F5C" d="M93.541,8.174c-0.879,0.879-2.318,0.879-3.197,0L87.57,5.399
		c-1.328-1.327-3.752-0.081-3.752,1.789v9.828c0,2.287,1.193,1.035,1.75,0.391l0.77-0.771c0.879-0.879,2.318-0.879,3.197,0
		l2.246,2.246c0.986,0.838,4.189,0.578,4.189-1.866V7.188c0-2.228-1.055-0.673-1.389-0.262L93.541,8.174L93.541,8.174z"/>
	<path fill-rule="evenodd" clip-rule="evenodd" fill="#63C7C9" d="M20.072,11.989c-1.329,0-2.407-1.078-2.407-2.407
		c0-1.329,1.078-2.407,2.407-2.407c1.33,0,2.407,1.078,2.407,2.407C22.479,10.912,21.402,11.989,20.072,11.989L20.072,11.989z
		 M23.768,4.836h-7.619c-1.251,0-2.266,1.015-2.266,2.266v9.943c0,1.252,1.015,2.267,2.266,2.267c1.195,0,1.618-0.563,2.211-1.316
		c0.749-0.951,2.3-0.98,3.196,0c0.63,0.689,1.282,1.272,2.211,1.316c1.251,0,2.266-1.015,2.266-2.267V7.102
		C26.034,5.851,25.019,4.836,23.768,4.836L23.768,4.836z"/>
	<path fill-rule="evenodd" clip-rule="evenodd" fill="#EC5F5C" d="M33.598,15.424c-1.772,0-3.209-1.437-3.209-3.209
		s1.437-3.209,3.209-3.209s3.209,1.437,3.209,3.209S35.371,15.424,33.598,15.424L33.598,15.424z M30.073,4.845
		c-1.352,0-2.288,1.136-2.288,2.31v9.879c0,1.269,1.001,2.248,2.298,2.298c2.426-0.021,4.46,0.004,6.346,0.004
		c2.487,0,3.792-3.298,3.792-7.242c0-3.973-1.288-7.26-3.792-7.248H30.073L30.073,4.845z"/>
	<path fill-rule="evenodd" clip-rule="evenodd" fill="#751E5F" d="M76.549,3.146H75.49c-0.611,0-1.105-0.496-1.105-1.107V1.107
		C74.385,0.496,74.879,0,75.49,0h1.059c0.609,0,1.105,0.496,1.105,1.107v0.932C77.654,2.65,77.158,3.146,76.549,3.146L76.549,3.146z
		"/>
	<path fill-rule="evenodd" clip-rule="evenodd" fill="#63C7C9" d="M108.006,14.127c0,0,1.211-0.889,1.211-1.81
		c0.002-0.922-1.211-1.81-1.211-1.81c-1.014-0.88-0.766-2.217,0-3.196c0.447-0.572,1.885-2.449-0.436-2.449h-7.555
		c-1.27,0-2.299,1.029-2.299,2.299v9.879c0,1.269,1.029,2.298,2.299,2.298h7.555c1.813,0,1.533-0.983,0.436-2.015
		C107.127,16.443,106.992,15.026,108.006,14.127L108.006,14.127z"/>
	<path fill-rule="evenodd" clip-rule="evenodd" fill="#F9B4A0" d="M121.564,10.43l0.928-0.928c0.576-0.606,0.623-1.457,0.623-2.339
		c0.004-1.279-1.037-2.316-2.316-2.316c-0.906,0.029-1.504,0.542-2.252,1.174c-0.947,0.804-2.342,0.903-3.195,0
		c-0.658-0.698-1.229-1.176-2.07-1.174c-1.279,0.001-2.316,1.037-2.316,2.316v9.842c0,1.279,1.037,2.316,2.316,2.316
		c0.85,0,1.504-0.606,2.07-1.25c0.822-0.932,2.258-0.814,3.195,0c0.818,0.711,1.328,1.226,2.252,1.25
		c1.279,0,2.316-1.037,2.316-2.316c0.096-1.382-0.598-2.387-1.551-3.38C120.705,12.728,120.686,11.308,121.564,10.43L121.564,10.43z
		"/>
	<path fill-rule="evenodd" clip-rule="evenodd" fill="#EE3B7A" d="M4.994,11.955c-1.329,0-2.407-1.078-2.407-2.407
		c0-1.33,1.078-2.407,2.407-2.407c1.33,0,2.407,1.077,2.407,2.407C7.401,10.877,6.324,11.955,4.994,11.955L4.994,11.955z
		 M11.445,14.469L10.6,13.624c-0.879-0.879-0.879-2.317,0-3.196l0.927-0.927c0.507-0.501,0.627-1.493,0.624-2.34
		c-0.004-1.279-1.037-2.316-2.316-2.316H2.316C1.037,4.845,0,5.882,0,7.161v9.843c0,1.279,0.965,2.285,2.316,2.316
		c0.731,0.017,1.454-0.63,2.07-1.25c0.876-0.882,2.344-0.904,3.196,0c0.651,0.691,1.365,1.219,2.252,1.25
		c1.279,0.045,2.244-1.039,2.316-2.316C12.212,15.931,12.1,15.155,11.445,14.469L11.445,14.469z"/>
	<path fill-rule="evenodd" clip-rule="evenodd" fill="#01ACC3" d="M0.183,30.332c0.008-0.089,0.035-0.177,0.082-0.265
		c0.047-0.089,0.103-0.161,0.167-0.217c0.287,0.174,0.558,0.261,0.815,0.261c0.112,0,0.195-0.025,0.247-0.076
		c0.052-0.052,0.079-0.114,0.079-0.188c0-0.126-0.084-0.226-0.253-0.298l-0.474-0.2c-0.185-0.083-0.327-0.183-0.426-0.299
		c-0.099-0.117-0.148-0.265-0.148-0.444c0-0.123,0.025-0.235,0.074-0.337c0.05-0.102,0.119-0.189,0.209-0.265
		s0.196-0.133,0.319-0.175c0.123-0.041,0.26-0.062,0.41-0.062c0.3,0,0.602,0.076,0.907,0.229c-0.014,0.206-0.086,0.366-0.217,0.481
		C1.7,28.347,1.459,28.28,1.25,28.28c-0.107,0-0.187,0.024-0.241,0.073c-0.054,0.048-0.081,0.103-0.081,0.164
		c0,0.104,0.079,0.188,0.237,0.253l0.482,0.205c0.203,0.085,0.355,0.195,0.456,0.328c0.1,0.135,0.15,0.289,0.15,0.466
		c0,0.126-0.022,0.241-0.068,0.346C2.14,30.22,2.073,30.31,1.983,30.387c-0.09,0.076-0.202,0.135-0.335,0.178
		s-0.291,0.064-0.47,0.064C0.831,30.629,0.499,30.53,0.183,30.332L0.183,30.332z"/>
	<path fill-rule="evenodd" clip-rule="evenodd" fill="#01ACC3" d="M5.305,28.361l0.004,0.296v1.912
		c-0.09,0.016-0.198,0.023-0.323,0.023c-0.125,0-0.23-0.008-0.315-0.023v-2.208l-0.257,0.004H4
		c-0.016-0.078-0.024-0.168-0.024-0.269c0-0.102,0.008-0.191,0.024-0.27h1.983c0.021,0.07,0.032,0.155,0.032,0.255
		s-0.027,0.172-0.081,0.216c-0.053,0.045-0.139,0.067-0.257,0.067H5.562l-0.253-0.004H5.305L5.305,28.361z"/>
	<path fill-rule="evenodd" clip-rule="evenodd" fill="#01ACC3" d="M8.56,28.28v0.791c0.12,0,0.223-0.002,0.309-0.006
		c0.086-0.004,0.155-0.021,0.207-0.049c0.052-0.027,0.092-0.067,0.118-0.118c0.027-0.052,0.041-0.126,0.041-0.223
		c0-0.261-0.126-0.392-0.377-0.392c-0.062,0-0.117,0-0.167,0C8.641,28.284,8.597,28.283,8.56,28.28L8.56,28.28z M8.343,26.88
		l0.469,0.297l0.486-0.35c0.048,0.02,0.1,0.054,0.157,0.103c0.056,0.05,0.091,0.102,0.104,0.155l-0.482,0.493
		c-0.168,0.04-0.344,0.04-0.526,0l-0.454-0.441c0.016-0.059,0.049-0.112,0.099-0.159C8.246,26.932,8.295,26.898,8.343,26.88
		L8.343,26.88z M9.889,28.674c0,0.089-0.014,0.172-0.04,0.251c-0.027,0.079-0.063,0.15-0.107,0.213
		c-0.044,0.063-0.096,0.118-0.156,0.165s-0.123,0.082-0.187,0.106c0.139,0.051,0.243,0.174,0.31,0.368l0.121,0.342
		c0.045,0.134,0.112,0.233,0.2,0.297c-0.04,0.054-0.1,0.099-0.18,0.135c-0.081,0.036-0.169,0.054-0.265,0.054
		s-0.171-0.027-0.225-0.082c-0.054-0.055-0.104-0.15-0.149-0.287l-0.145-0.422c-0.029-0.08-0.069-0.141-0.118-0.184
		c-0.05-0.043-0.124-0.064-0.223-0.064H8.56v1.004c-0.086,0.016-0.193,0.023-0.321,0.023s-0.234-0.008-0.317-0.023v-2.723
		l0.028-0.027c0.233-0.006,0.429-0.01,0.588-0.013c0.16-0.002,0.285-0.004,0.375-0.004c0.147,0,0.281,0.019,0.401,0.055
		s0.223,0.09,0.307,0.162s0.15,0.164,0.197,0.272C9.865,28.402,9.889,28.529,9.889,28.674L9.889,28.674z"/>
	<path fill-rule="evenodd" clip-rule="evenodd" fill="#01ACC3" d="M12.63,29.758l-0.004,0.289v0.004
		c0.123-0.005,0.221-0.008,0.296-0.008h0.928c0,0.099-0.004,0.175-0.012,0.229c-0.032,0.206-0.169,0.31-0.41,0.31h-1.067
		c-0.115,0-0.206-0.033-0.271-0.101s-0.099-0.158-0.099-0.273v-2.352l0.028-0.028h1.73c0.016,0.078,0.024,0.162,0.024,0.252
		c0,0.092-0.019,0.187-0.056,0.286h-1.092l0.004,0.289v0.281c0.069-0.003,0.16-0.005,0.272-0.005h0.611
		c0.024,0.075,0.036,0.161,0.036,0.257c0,0.097-0.012,0.186-0.036,0.266H12.63V29.758L12.63,29.758z"/>
	<path fill-rule="evenodd" clip-rule="evenodd" fill="#01ACC3" d="M16.937,30.091c0.353,0,0.53-0.297,0.53-0.891
		c0-0.598-0.177-0.896-0.53-0.896c-0.086,0-0.161,0-0.227,0c-0.066,0-0.123-0.001-0.171-0.004v1.794
		c0.048-0.002,0.105-0.004,0.171-0.004C16.776,30.091,16.851,30.091,16.937,30.091L16.937,30.091z M17.675,30.393
		c-0.085,0.069-0.198,0.12-0.337,0.152s-0.293,0.048-0.461,0.048c-0.083,0-0.203-0.001-0.359-0.004s-0.353-0.007-0.588-0.012
		l-0.028-0.028v-2.702l0.028-0.027c0.155-0.006,0.317-0.01,0.484-0.013c0.167-0.002,0.343-0.004,0.528-0.004
		c0.228,0,0.417,0.036,0.57,0.108c0.153,0.072,0.274,0.172,0.365,0.297c0.091,0.126,0.156,0.274,0.193,0.444
		c0.038,0.17,0.056,0.353,0.056,0.548c0,0.268-0.031,0.499-0.092,0.694C17.971,30.089,17.852,30.256,17.675,30.393L17.675,30.393z"
		/>
	<path fill-rule="evenodd" clip-rule="evenodd" fill="#01ACC3" d="M20.192,30.569v-2.742c0.083-0.016,0.19-0.024,0.322-0.024
		c0.131,0,0.239,0.009,0.325,0.024v2.742c-0.085,0.016-0.194,0.023-0.325,0.023C20.382,30.593,20.275,30.585,20.192,30.569
		L20.192,30.569z"/>
	<path fill-rule="evenodd" clip-rule="evenodd" fill="#01ACC3" d="M22.817,30.332c0.008-0.089,0.035-0.177,0.083-0.265
		c0.047-0.089,0.102-0.161,0.166-0.217c0.287,0.174,0.559,0.261,0.815,0.261c0.112,0,0.194-0.025,0.247-0.076
		c0.052-0.052,0.078-0.114,0.078-0.188c0-0.126-0.084-0.226-0.252-0.298l-0.474-0.2c-0.185-0.083-0.327-0.183-0.426-0.299
		c-0.099-0.117-0.148-0.265-0.148-0.444c0-0.123,0.024-0.235,0.074-0.337s0.119-0.189,0.208-0.265
		c0.09-0.075,0.196-0.133,0.319-0.175c0.123-0.041,0.259-0.062,0.409-0.062c0.3,0,0.602,0.076,0.908,0.229
		c-0.014,0.206-0.086,0.366-0.217,0.481c-0.273-0.131-0.514-0.197-0.722-0.197c-0.107,0-0.188,0.024-0.241,0.073
		c-0.054,0.048-0.081,0.103-0.081,0.164c0,0.104,0.079,0.188,0.237,0.253l0.482,0.205c0.203,0.085,0.355,0.195,0.455,0.328
		c0.101,0.135,0.151,0.289,0.151,0.466c0,0.126-0.023,0.241-0.068,0.346s-0.113,0.194-0.203,0.271
		c-0.09,0.076-0.201,0.135-0.335,0.178s-0.291,0.064-0.47,0.064C23.465,30.629,23.133,30.53,22.817,30.332L22.817,30.332z"/>
	<path fill-rule="evenodd" clip-rule="evenodd" fill="#01ACC3" d="M29.063,30.412c-0.091,0.128-0.232,0.192-0.425,0.192
		c-0.11,0-0.192-0.027-0.247-0.084s-0.102-0.15-0.143-0.285l-0.153-0.47c-0.04-0.126-0.088-0.216-0.146-0.269
		c-0.056-0.054-0.133-0.08-0.229-0.08c-0.033,0-0.092,0.003-0.178,0.008v1.145c-0.083,0.016-0.189,0.023-0.319,0.023
		s-0.237-0.008-0.319-0.023v-2.742c0.083-0.016,0.188-0.024,0.319-0.024s0.237,0.009,0.319,0.024v1.06l0.104-0.004
		c0.049,0,0.084-0.009,0.105-0.026s0.047-0.055,0.077-0.11l0.384-0.718c0.04-0.083,0.083-0.142,0.128-0.175
		c0.045-0.033,0.117-0.051,0.213-0.051c0.107,0,0.231,0.007,0.374,0.021l0.036,0.044l-0.491,0.923
		c-0.062,0.123-0.137,0.221-0.226,0.294c0.126,0.026,0.221,0.077,0.284,0.151c0.063,0.076,0.116,0.176,0.159,0.302l0.165,0.498
		c0.021,0.062,0.038,0.106,0.048,0.136c0.01,0.03,0.037,0.079,0.08,0.148C29.001,30.347,29.028,30.378,29.063,30.412L29.063,30.412z
		"/>
	<path fill-rule="evenodd" clip-rule="evenodd" fill="#01ACC3" d="M31.563,29.822c0.072,0.209,0.218,0.313,0.438,0.313
		c0.109,0,0.198-0.027,0.267-0.082s0.122-0.124,0.161-0.208c0.039-0.085,0.065-0.179,0.078-0.283s0.02-0.208,0.02-0.31
		c0-0.094-0.003-0.198-0.01-0.313c-0.007-0.116-0.026-0.223-0.059-0.323c-0.032-0.101-0.083-0.186-0.152-0.254
		c-0.069-0.067-0.171-0.102-0.305-0.102c-0.129,0-0.227,0.033-0.295,0.099c-0.068,0.065-0.119,0.146-0.152,0.242
		c-0.034,0.097-0.054,0.199-0.063,0.308c-0.008,0.108-0.012,0.203-0.012,0.287c0,0.123,0.006,0.232,0.018,0.329
		C31.509,29.621,31.532,29.721,31.563,29.822L31.563,29.822z M31.239,30.376c-0.287-0.238-0.43-0.631-0.43-1.176
		c0-0.236,0.027-0.442,0.083-0.62c0.055-0.178,0.134-0.327,0.237-0.448c0.103-0.12,0.228-0.211,0.375-0.272s0.313-0.092,0.498-0.092
		s0.351,0.03,0.5,0.092s0.274,0.153,0.377,0.274c0.103,0.122,0.182,0.272,0.237,0.45c0.055,0.178,0.082,0.384,0.082,0.616
		s-0.027,0.438-0.082,0.615c-0.055,0.179-0.134,0.328-0.237,0.448c-0.104,0.12-0.229,0.211-0.377,0.272s-0.315,0.093-0.5,0.093
		C31.696,30.629,31.442,30.545,31.239,30.376L31.239,30.376z"/>
	<path fill-rule="evenodd" clip-rule="evenodd" fill="#01ACC3" d="M38.708,30.031l0.526-2.204c0.064-0.016,0.147-0.024,0.249-0.024
		c0.139,0,0.249,0.015,0.329,0.044l0.024,0.033l-0.75,2.689c-0.153,0.016-0.306,0.023-0.46,0.023c-0.153,0-0.265-0.02-0.333-0.059
		c-0.068-0.038-0.12-0.115-0.154-0.23l-0.667-2.42c0.145-0.062,0.264-0.093,0.357-0.093c0.112,0,0.195,0.025,0.249,0.076
		c0.054,0.051,0.095,0.131,0.125,0.241l0.309,1.144c0.048,0.18,0.099,0.423,0.153,0.73C38.67,30.015,38.685,30.031,38.708,30.031
		L38.708,30.031z"/>
	<path fill-rule="evenodd" clip-rule="evenodd" fill="#01ACC3" d="M42.333,29.822c0.073,0.209,0.218,0.313,0.438,0.313
		c0.11,0,0.199-0.027,0.267-0.082c0.068-0.055,0.122-0.124,0.161-0.208c0.039-0.085,0.065-0.179,0.078-0.283s0.02-0.208,0.02-0.31
		c0-0.094-0.003-0.198-0.01-0.313c-0.006-0.116-0.026-0.223-0.058-0.323c-0.032-0.101-0.083-0.186-0.152-0.254
		c-0.069-0.067-0.171-0.102-0.305-0.102c-0.128,0-0.227,0.033-0.295,0.099c-0.068,0.065-0.119,0.146-0.152,0.242
		c-0.034,0.097-0.054,0.199-0.062,0.308c-0.008,0.108-0.012,0.203-0.012,0.287c0,0.123,0.006,0.232,0.018,0.329
		C42.279,29.621,42.301,29.721,42.333,29.822L42.333,29.822z M42.008,30.376c-0.287-0.238-0.43-0.631-0.43-1.176
		c0-0.236,0.027-0.442,0.082-0.62s0.134-0.327,0.237-0.448c0.103-0.12,0.228-0.211,0.375-0.272c0.147-0.062,0.313-0.092,0.498-0.092
		c0.185,0,0.351,0.03,0.5,0.092c0.148,0.062,0.274,0.153,0.377,0.274c0.103,0.122,0.182,0.272,0.237,0.45
		c0.055,0.178,0.082,0.384,0.082,0.616s-0.027,0.438-0.082,0.615c-0.055,0.179-0.134,0.328-0.237,0.448
		c-0.103,0.12-0.229,0.211-0.377,0.272c-0.149,0.062-0.315,0.093-0.5,0.093C42.466,30.629,42.211,30.545,42.008,30.376
		L42.008,30.376z"/>
	<path fill-rule="evenodd" clip-rule="evenodd" fill="#01ACC3" d="M47.035,30.026h0.697c0,0.107-0.007,0.199-0.02,0.275
		c-0.014,0.076-0.056,0.142-0.128,0.196c-0.072,0.056-0.167,0.083-0.285,0.083h-0.907c-0.115,0-0.206-0.033-0.273-0.101
		s-0.101-0.158-0.101-0.273v-2.38l0.028-0.028h0.235c0.25,0,0.375,0.137,0.375,0.409v1.835C46.774,30.032,46.9,30.026,47.035,30.026
		L47.035,30.026z"/>
	<path fill-rule="evenodd" clip-rule="evenodd" fill="#01ACC3" d="M51.882,27.799l0.028,0.028v2.729
		c-0.107,0.024-0.234,0.036-0.379,0.036c-0.146,0-0.275-0.008-0.387-0.023l-0.63-1.438c-0.075-0.163-0.151-0.352-0.229-0.566
		l-0.012,0.004c0.032,0.391,0.048,0.791,0.048,1.2v0.8c-0.083,0.016-0.183,0.023-0.301,0.023c-0.118,0-0.217-0.008-0.297-0.023
		v-2.73c0.101-0.023,0.224-0.036,0.367-0.036s0.271,0.009,0.383,0.024l0.623,1.433c0.112,0.266,0.195,0.469,0.249,0.61l0.016-0.008
		c-0.032-0.372-0.048-0.767-0.048-1.185v-0.489c0-0.14,0.028-0.239,0.084-0.299c0.056-0.061,0.147-0.091,0.273-0.091H51.882
		L51.882,27.799z"/>
	<path fill-rule="evenodd" clip-rule="evenodd" fill="#01ACC3" d="M54.516,27.35l0.899-0.55c0.054,0.043,0.106,0.11,0.158,0.202
		c0.053,0.093,0.082,0.183,0.087,0.271l-0.964,0.377c-0.042-0.023-0.082-0.065-0.116-0.124
		C54.545,27.467,54.523,27.408,54.516,27.35L54.516,27.35z M54.756,29.758l-0.004,0.289v0.004c0.123-0.005,0.222-0.008,0.296-0.008
		h0.928c0,0.099-0.004,0.175-0.012,0.229c-0.032,0.206-0.169,0.31-0.41,0.31h-1.067c-0.115,0-0.205-0.033-0.271-0.101
		c-0.065-0.067-0.098-0.158-0.098-0.273v-2.352l0.028-0.028h1.73c0.016,0.078,0.024,0.162,0.024,0.252
		c0,0.092-0.018,0.187-0.056,0.286h-1.092l0.004,0.289v0.281c0.069-0.003,0.16-0.005,0.271-0.005h0.611
		c0.024,0.075,0.036,0.161,0.036,0.257c0,0.097-0.012,0.186-0.036,0.266h-0.883V29.758L54.756,29.758z"/>
	<path fill-rule="evenodd" clip-rule="evenodd" fill="#01ACC3" d="M59.533,28.891l-0.004-0.297v-0.767
		c0.083-0.016,0.189-0.024,0.321-0.024c0.132,0,0.238,0.009,0.317,0.024v2.742c-0.085,0.016-0.191,0.023-0.319,0.023
		c-0.127,0-0.234-0.008-0.319-0.023v-0.852l0.004-0.297l-0.202,0.004h-0.468l-0.202-0.004l0.004,0.297v0.852
		c-0.082,0.016-0.188,0.023-0.319,0.023s-0.237-0.008-0.319-0.023v-2.742c0.082-0.016,0.188-0.024,0.319-0.024
		s0.237,0.009,0.319,0.024v0.767l-0.004,0.297l0.202-0.004h0.468L59.533,28.891L59.533,28.891z"/>
	<path fill-rule="evenodd" clip-rule="evenodd" fill="#01ACC3" d="M62.981,29.822c0.072,0.209,0.218,0.313,0.437,0.313
		c0.109,0,0.199-0.027,0.268-0.082s0.121-0.124,0.16-0.208c0.039-0.085,0.064-0.179,0.078-0.283s0.02-0.208,0.02-0.31
		c0-0.094-0.002-0.198-0.01-0.313c-0.006-0.116-0.025-0.223-0.059-0.323c-0.031-0.101-0.082-0.186-0.152-0.254
		c-0.068-0.067-0.17-0.102-0.305-0.102c-0.129,0-0.227,0.033-0.295,0.099s-0.119,0.146-0.152,0.242
		c-0.034,0.097-0.055,0.199-0.063,0.308c-0.009,0.108-0.013,0.203-0.013,0.287c0,0.123,0.006,0.232,0.019,0.329
		C62.926,29.621,62.949,29.721,62.981,29.822L62.981,29.822z M62.656,30.376c-0.286-0.238-0.43-0.631-0.43-1.176
		c0-0.236,0.027-0.442,0.083-0.62c0.054-0.178,0.133-0.327,0.237-0.448c0.103-0.12,0.229-0.211,0.375-0.272
		c0.148-0.062,0.314-0.092,0.498-0.092c0.186,0,0.352,0.03,0.5,0.092s0.273,0.153,0.377,0.274c0.104,0.122,0.182,0.272,0.236,0.45
		s0.084,0.384,0.084,0.616s-0.029,0.438-0.084,0.615c-0.055,0.179-0.133,0.328-0.236,0.448c-0.102,0.12-0.229,0.211-0.377,0.272
		s-0.314,0.093-0.5,0.093C63.113,30.629,62.859,30.545,62.656,30.376L62.656,30.376z"/>
	<path fill-rule="evenodd" clip-rule="evenodd" fill="#01ACC3" d="M69.668,26.88l0.471,0.297l0.484-0.35
		c0.049,0.02,0.1,0.054,0.156,0.103c0.057,0.05,0.092,0.102,0.105,0.155l-0.482,0.493c-0.168,0.04-0.344,0.04-0.525,0l-0.453-0.441
		c0.016-0.059,0.049-0.112,0.098-0.159C69.57,26.932,69.619,26.898,69.668,26.88L69.668,26.88z M70.592,28.919V28.87
		c0-0.396-0.148-0.594-0.441-0.594c-0.17,0-0.291,0.077-0.365,0.23c-0.076,0.154-0.113,0.381-0.113,0.681
		c0,0.298,0.047,0.519,0.141,0.663s0.23,0.217,0.41,0.217c0.092,0,0.197-0.022,0.311-0.066c0.113-0.045,0.236-0.115,0.371-0.211
		c0.066,0.046,0.129,0.107,0.188,0.187c0.057,0.079,0.092,0.154,0.105,0.227c-0.061,0.06-0.133,0.114-0.215,0.167
		c-0.082,0.052-0.17,0.097-0.266,0.135c-0.094,0.037-0.193,0.067-0.297,0.09c-0.102,0.022-0.205,0.034-0.311,0.034
		c-0.207,0-0.381-0.04-0.521-0.118c-0.143-0.079-0.256-0.185-0.344-0.315c-0.086-0.131-0.15-0.282-0.188-0.453
		c-0.039-0.172-0.059-0.35-0.059-0.534c0-0.24,0.029-0.451,0.09-0.632s0.143-0.331,0.244-0.452c0.104-0.12,0.225-0.211,0.363-0.271
		c0.139-0.061,0.289-0.091,0.447-0.091c0.16,0,0.305,0.021,0.438,0.064c0.131,0.043,0.242,0.102,0.334,0.177
		s0.164,0.163,0.213,0.265s0.074,0.211,0.074,0.329c0,0.238-0.121,0.357-0.365,0.357C70.764,28.955,70.682,28.943,70.592,28.919
		L70.592,28.919z"/>
	<path fill-rule="evenodd" clip-rule="evenodd" fill="#01ACC3" d="M73.863,29.489l0.16-0.004h0.293c0.014,0,0.037,0,0.07,0.002
		c0.033,0.001,0.059,0.002,0.074,0.002l-0.068-0.249c-0.064-0.225-0.139-0.501-0.221-0.827h-0.025
		c-0.02,0.115-0.084,0.371-0.191,0.767L73.863,29.489L73.863,29.489z M73.875,29.995c-0.072,0-0.127-0.002-0.16-0.005l-0.174,0.583
		c-0.064,0.016-0.154,0.023-0.27,0.023c-0.127,0-0.232-0.015-0.313-0.044l-0.02-0.032l0.883-2.693
		c0.105-0.016,0.227-0.024,0.365-0.024c0.158,0,0.283,0.01,0.377,0.028l0.867,2.697c-0.094,0.052-0.199,0.076-0.316,0.076
		c-0.141,0-0.238-0.023-0.293-0.072c-0.057-0.048-0.105-0.14-0.145-0.276l-0.076-0.266c-0.035,0.003-0.088,0.005-0.156,0.005H73.875
		L73.875,29.995z"/>
	<path fill-rule="evenodd" clip-rule="evenodd" fill="#01ACC3" d="M77.129,30.332c0.01-0.089,0.037-0.177,0.082-0.265
		c0.047-0.089,0.104-0.161,0.168-0.217c0.285,0.174,0.557,0.261,0.814,0.261c0.113,0,0.195-0.025,0.246-0.076
		c0.053-0.052,0.08-0.114,0.08-0.188c0-0.126-0.086-0.226-0.254-0.298l-0.475-0.2c-0.184-0.083-0.326-0.183-0.424-0.299
		c-0.1-0.117-0.148-0.265-0.148-0.444c0-0.123,0.023-0.235,0.074-0.337c0.049-0.102,0.117-0.189,0.207-0.265s0.197-0.133,0.32-0.175
		c0.123-0.041,0.26-0.062,0.408-0.062c0.301,0,0.604,0.076,0.908,0.229c-0.014,0.206-0.086,0.366-0.217,0.481
		c-0.273-0.131-0.514-0.197-0.723-0.197c-0.107,0-0.188,0.024-0.24,0.073c-0.055,0.048-0.08,0.103-0.08,0.164
		c0,0.104,0.078,0.188,0.236,0.253l0.48,0.205c0.205,0.085,0.355,0.195,0.457,0.328c0.1,0.135,0.15,0.289,0.15,0.466
		c0,0.126-0.023,0.241-0.068,0.346s-0.113,0.194-0.203,0.271c-0.09,0.076-0.201,0.135-0.336,0.178
		c-0.133,0.043-0.289,0.064-0.469,0.064C77.777,30.629,77.445,30.53,77.129,30.332L77.129,30.332z"/>
	<path fill-rule="evenodd" clip-rule="evenodd" fill="#01ACC3" d="M83.344,27.827v1.73c0,0.342-0.094,0.606-0.281,0.792
		c-0.188,0.187-0.453,0.279-0.801,0.279s-0.615-0.093-0.803-0.279c-0.189-0.186-0.283-0.45-0.283-0.792v-1.73l0.027-0.028h0.238
		c0.254,0,0.381,0.137,0.381,0.409v1.357c0,0.188,0.033,0.326,0.1,0.417c0.068,0.091,0.182,0.137,0.342,0.137
		s0.273-0.046,0.342-0.137c0.066-0.091,0.1-0.229,0.1-0.417v-1.738c0.082-0.016,0.189-0.024,0.318-0.024
		S83.258,27.812,83.344,27.827L83.344,27.827z"/>
	<path fill-rule="evenodd" clip-rule="evenodd" fill="#01ACC3" d="M88.65,28.28v0.791c0.119,0,0.223-0.002,0.309-0.006
		s0.154-0.021,0.207-0.049c0.051-0.027,0.092-0.067,0.117-0.118c0.027-0.052,0.041-0.126,0.041-0.223
		c0-0.261-0.127-0.392-0.377-0.392c-0.063,0-0.117,0-0.168,0C88.73,28.284,88.688,28.283,88.65,28.28L88.65,28.28z M89.979,28.674
		c0,0.089-0.014,0.172-0.041,0.251s-0.063,0.15-0.105,0.213c-0.045,0.063-0.098,0.118-0.156,0.165
		c-0.061,0.047-0.123,0.082-0.188,0.106c0.139,0.051,0.242,0.174,0.309,0.368l0.121,0.342c0.045,0.134,0.113,0.233,0.201,0.297
		c-0.041,0.054-0.102,0.099-0.182,0.135s-0.168,0.054-0.264,0.054c-0.098,0-0.172-0.027-0.225-0.082
		c-0.055-0.055-0.104-0.15-0.148-0.287l-0.145-0.422c-0.031-0.08-0.07-0.141-0.119-0.184c-0.051-0.043-0.125-0.064-0.223-0.064
		H88.65v1.004c-0.086,0.016-0.193,0.023-0.322,0.023s-0.234-0.008-0.316-0.023v-2.723l0.027-0.027
		c0.232-0.006,0.43-0.01,0.588-0.013c0.16-0.002,0.285-0.004,0.375-0.004c0.148,0,0.281,0.019,0.402,0.055
		c0.119,0.036,0.223,0.09,0.307,0.162s0.15,0.164,0.197,0.272C89.955,28.402,89.979,28.529,89.979,28.674L89.979,28.674z"/>
	<path fill-rule="evenodd" clip-rule="evenodd" fill="#01ACC3" d="M92.74,29.489l0.16-0.004h0.293c0.014,0,0.037,0,0.07,0.002
		c0.033,0.001,0.059,0.002,0.074,0.002L93.27,29.24c-0.064-0.225-0.137-0.501-0.221-0.827h-0.023
		c-0.021,0.115-0.086,0.371-0.193,0.767L92.74,29.489L92.74,29.489z M92.752,29.995c-0.072,0-0.125-0.002-0.16-0.005l-0.174,0.583
		c-0.063,0.016-0.154,0.023-0.268,0.023c-0.129,0-0.234-0.015-0.314-0.044l-0.02-0.032l0.883-2.693
		c0.105-0.016,0.227-0.024,0.365-0.024c0.158,0,0.283,0.01,0.379,0.028l0.865,2.697c-0.094,0.052-0.199,0.076-0.316,0.076
		c-0.139,0-0.236-0.023-0.293-0.072c-0.057-0.048-0.105-0.14-0.145-0.276l-0.076-0.266c-0.035,0.003-0.088,0.005-0.156,0.005H92.752
		L92.752,29.995z"/>
	<path fill-rule="evenodd" clip-rule="evenodd" fill="#01ACC3" d="M97.287,30.091c0.354,0,0.531-0.297,0.531-0.891
		c0-0.598-0.178-0.896-0.531-0.896c-0.086,0-0.16,0-0.227,0c-0.064,0-0.123-0.001-0.17-0.004v1.794
		c0.047-0.002,0.104-0.004,0.17-0.004S97.201,30.091,97.287,30.091L97.287,30.091z M98.025,30.393
		c-0.084,0.069-0.197,0.12-0.336,0.152s-0.293,0.048-0.463,0.048c-0.082,0-0.201-0.001-0.359-0.004
		c-0.156-0.003-0.352-0.007-0.588-0.012l-0.027-0.028v-2.702l0.027-0.027c0.156-0.006,0.316-0.01,0.484-0.013
		c0.168-0.002,0.344-0.004,0.527-0.004c0.229,0,0.418,0.036,0.57,0.108s0.275,0.172,0.365,0.297
		c0.092,0.126,0.156,0.274,0.193,0.444s0.057,0.353,0.057,0.548c0,0.268-0.031,0.499-0.094,0.694
		C98.322,30.089,98.203,30.256,98.025,30.393L98.025,30.393z"/>
	<path fill-rule="evenodd" clip-rule="evenodd" fill="#01ACC3" d="M101.129,29.822c0.072,0.209,0.219,0.313,0.438,0.313
		c0.109,0,0.199-0.027,0.268-0.082s0.121-0.124,0.16-0.208c0.039-0.085,0.064-0.179,0.078-0.283s0.02-0.208,0.02-0.31
		c0-0.094-0.002-0.198-0.01-0.313c-0.006-0.116-0.025-0.223-0.059-0.323c-0.031-0.101-0.082-0.186-0.152-0.254
		c-0.068-0.067-0.172-0.102-0.305-0.102c-0.129,0-0.227,0.033-0.295,0.099s-0.119,0.146-0.152,0.242
		c-0.033,0.097-0.055,0.199-0.063,0.308s-0.012,0.203-0.012,0.287c0,0.123,0.006,0.232,0.018,0.329
		C101.074,29.621,101.098,29.721,101.129,29.822L101.129,29.822z M100.805,30.376c-0.287-0.238-0.43-0.631-0.43-1.176
		c0-0.236,0.027-0.442,0.082-0.62s0.133-0.327,0.236-0.448c0.104-0.12,0.229-0.211,0.375-0.272c0.148-0.062,0.314-0.092,0.498-0.092
		c0.186,0,0.352,0.03,0.5,0.092s0.273,0.153,0.377,0.274c0.104,0.122,0.182,0.272,0.236,0.45s0.082,0.384,0.082,0.616
		s-0.027,0.438-0.082,0.615c-0.055,0.179-0.133,0.328-0.236,0.448s-0.229,0.211-0.377,0.272s-0.314,0.093-0.5,0.093
		C101.262,30.629,101.008,30.545,100.805,30.376L100.805,30.376z"/>
	<path fill-rule="evenodd" clip-rule="evenodd" fill="#01ACC3" d="M105.744,30.031l0.527-2.204c0.064-0.016,0.146-0.024,0.248-0.024
		c0.139,0,0.25,0.015,0.328,0.044l0.025,0.033l-0.75,2.689c-0.152,0.016-0.307,0.023-0.461,0.023c-0.152,0-0.264-0.02-0.332-0.059
		c-0.068-0.038-0.121-0.115-0.154-0.23l-0.666-2.42c0.143-0.062,0.262-0.093,0.355-0.093c0.113,0,0.195,0.025,0.25,0.076
		c0.053,0.051,0.094,0.131,0.125,0.241l0.309,1.144c0.047,0.18,0.098,0.423,0.152,0.73
		C105.707,30.015,105.721,30.031,105.744,30.031L105.744,30.031z"/>
	<path fill-rule="evenodd" clip-rule="evenodd" fill="#01ACC3" d="M109.27,29.489l0.16-0.004h0.293c0.014,0,0.037,0,0.07,0.002
		c0.033,0.001,0.059,0.002,0.074,0.002l-0.068-0.249c-0.064-0.225-0.137-0.501-0.221-0.827h-0.023
		c-0.021,0.115-0.086,0.371-0.193,0.767L109.27,29.489L109.27,29.489z M109.102,27.35L110,26.8c0.053,0.043,0.105,0.11,0.158,0.202
		c0.053,0.093,0.082,0.183,0.086,0.271l-0.963,0.377c-0.043-0.023-0.082-0.065-0.115-0.124
		C109.131,27.467,109.109,27.408,109.102,27.35L109.102,27.35z M109.281,29.995c-0.072,0-0.125-0.002-0.16-0.005l-0.174,0.583
		c-0.063,0.016-0.152,0.023-0.268,0.023c-0.129,0-0.232-0.015-0.313-0.044l-0.021-0.032l0.883-2.693
		c0.105-0.016,0.227-0.024,0.365-0.024c0.158,0,0.285,0.01,0.379,0.028l0.867,2.697c-0.094,0.052-0.201,0.076-0.318,0.076
		c-0.139,0-0.236-0.023-0.293-0.072c-0.057-0.048-0.104-0.14-0.145-0.276l-0.076-0.266c-0.035,0.003-0.088,0.005-0.156,0.005
		H109.281L109.281,29.995z"/>
	<path fill-rule="evenodd" clip-rule="evenodd" fill="#01ACC3" d="M114.941,27.799l0.027,0.028v2.729
		c-0.107,0.024-0.232,0.036-0.379,0.036s-0.275-0.008-0.387-0.023l-0.631-1.438c-0.074-0.163-0.15-0.352-0.229-0.566l-0.012,0.004
		c0.031,0.391,0.047,0.791,0.047,1.2v0.8c-0.082,0.016-0.184,0.023-0.301,0.023s-0.217-0.008-0.297-0.023v-2.73
		c0.102-0.023,0.225-0.036,0.367-0.036c0.145,0,0.271,0.009,0.383,0.024l0.623,1.433c0.113,0.266,0.195,0.469,0.248,0.61
		l0.018-0.008c-0.033-0.372-0.049-0.767-0.049-1.185v-0.489c0-0.14,0.027-0.239,0.084-0.299c0.057-0.061,0.146-0.091,0.273-0.091
		H114.941L114.941,27.799z"/>
	<path fill-rule="evenodd" clip-rule="evenodd" fill="#01ACC3" d="M117.814,29.758l-0.004,0.289v0.004
		c0.123-0.005,0.223-0.008,0.297-0.008h0.928c0,0.099-0.004,0.175-0.012,0.229c-0.033,0.206-0.168,0.31-0.41,0.31h-1.066
		c-0.115,0-0.207-0.033-0.271-0.101c-0.066-0.067-0.098-0.158-0.098-0.273v-2.352l0.027-0.028h1.73
		c0.016,0.078,0.023,0.162,0.023,0.252c0,0.092-0.02,0.187-0.057,0.286h-1.092l0.004,0.289v0.281c0.07-0.003,0.16-0.005,0.271-0.005
		h0.611c0.025,0.075,0.037,0.161,0.037,0.257c0,0.097-0.012,0.186-0.037,0.266h-0.883V29.758L117.814,29.758z"/>
	<path fill-rule="evenodd" clip-rule="evenodd" fill="#01ACC3" d="M123.246,30.412c-0.092,0.128-0.232,0.192-0.426,0.192
		c-0.109,0-0.191-0.027-0.246-0.084s-0.104-0.15-0.143-0.285l-0.154-0.47c-0.041-0.126-0.088-0.216-0.145-0.269
		c-0.057-0.054-0.135-0.08-0.23-0.08c-0.033,0-0.092,0.003-0.178,0.008v1.145c-0.082,0.016-0.189,0.023-0.318,0.023
		c-0.131,0-0.238-0.008-0.32-0.023v-2.742c0.082-0.016,0.189-0.024,0.32-0.024c0.129,0,0.236,0.009,0.318,0.024v1.06l0.105-0.004
		c0.047,0,0.082-0.009,0.105-0.026c0.021-0.018,0.047-0.055,0.076-0.11l0.383-0.718c0.041-0.083,0.084-0.142,0.129-0.175
		s0.115-0.051,0.213-0.051c0.107,0,0.23,0.007,0.373,0.021l0.037,0.044l-0.492,0.923c-0.061,0.123-0.137,0.221-0.225,0.294
		c0.125,0.026,0.221,0.077,0.283,0.151c0.063,0.076,0.115,0.176,0.158,0.302l0.166,0.498c0.021,0.062,0.037,0.106,0.049,0.136
		c0.01,0.03,0.037,0.079,0.08,0.148C123.184,30.347,123.211,30.378,123.246,30.412L123.246,30.412z"/>
	<path fill-rule="evenodd" clip-rule="evenodd" fill="#F9B4A0" d="M48.008,15.413c-1.772,0-3.209-1.437-3.209-3.209
		s1.437-3.209,3.209-3.209s3.209,1.437,3.209,3.209S49.78,15.413,48.008,15.413L48.008,15.413z M51.849,4.845h-7.556
		c-1.269,0-2.298,1.029-2.298,2.299v9.879c0,1.269,1.029,2.298,2.298,2.298h7.556c1.269,0,2.298-1.029,2.298-2.298V7.144
		C54.147,5.874,53.118,4.845,51.849,4.845L51.849,4.845z"/>
	<path fill-rule="evenodd" clip-rule="evenodd" fill="#751E5F" d="M76.119,12.013c-1.33,0-2.406-1.077-2.406-2.407
		s1.076-2.408,2.406-2.408s2.406,1.078,2.406,2.408S77.449,12.013,76.119,12.013L76.119,12.013z M79.814,4.859h-7.619
		c-1.252,0-2.266,1.015-2.266,2.267v9.943c0,1.251,1.014,2.266,2.266,2.266c1.195,0,1.619-0.563,2.211-1.316
		c0.75-0.951,2.301-0.979,3.197,0c0.631,0.689,1.281,1.273,2.211,1.316c1.252,0,2.266-1.015,2.266-2.266V7.126
		C82.08,5.874,81.066,4.859,79.814,4.859L79.814,4.859z"/>
</g>
</svg>
